<?xml version="1.0" encoding="UTF-8"?>
<svg id="Ebene_1" data-name="Ebene 1" xmlns="http://www.w3.org/2000/svg" viewBox="0 0 32.5 32.5">
  <defs>
    <style>
      .cls-1 {
        fill: #f7f6f5;
        stroke-width: 0px;
      }

      .cls-2 {
        isolation: isolate;
      }
    </style>
  </defs>
  <g id="Gruppe_106" data-name="Gruppe 106" class="cls-2">
    <path id="Pfad_580" data-name="Pfad 580" class="cls-1" d="M1.35,16.25c1.58-.6,2.96-1.17,4.15-1.71,1.08-.48,2.13-1.04,3.12-1.68.85-.55,1.65-1.18,2.37-1.9.72-.72,1.35-1.53,1.89-2.39.63-1.01,1.18-2.07,1.67-3.16.54-1.2,1.11-2.6,1.71-4.2.6,1.61,1.17,3.01,1.71,4.2.48,1.09,1.04,2.14,1.67,3.16.54.86,1.17,1.66,1.88,2.39.72.72,1.51,1.35,2.37,1.9,1,.63,2.04,1.19,3.12,1.68,1.18.54,2.56,1.11,4.14,1.71-1.58.62-2.96,1.19-4.14,1.72-1.08.48-2.13,1.03-3.12,1.67-1.73,1.08-3.18,2.55-4.25,4.29-.63,1.01-1.19,2.07-1.67,3.16-.54,1.2-1.11,2.6-1.71,4.2-.61-1.61-1.19-3.01-1.72-4.2-.48-1.09-1.03-2.14-1.66-3.16-.54-.86-1.17-1.67-1.89-2.39-.72-.71-1.52-1.35-2.37-1.9-1-.64-2.04-1.2-3.12-1.68-1.19-.54-2.57-1.11-4.15-1.71Z"/>
  </g>
</svg>