<?xml version="1.0" encoding="UTF-8"?>
<svg id="Ebene_1" data-name="Ebene 1" xmlns="http://www.w3.org/2000/svg" viewBox="0 0 100 79.37">
  <defs>
    <style>
      .cls-1 {
        fill: #f7f6f5;
        stroke-width: 0px;
      }
    </style>
  </defs>
  <path id="Pfad_533" data-name="Pfad 533" class="cls-1" d="M18.53,43.64h-6.26c-.78,0-1.42-.64-1.42-1.42v-3.28c0-.78.63-1.42,1.42-1.42h6.26c.78,0,1.42.64,1.42,1.42v3.28c0,.78-.64,1.42-1.42,1.42Z"/>
  <path id="Pfad_534" data-name="Pfad 534" class="cls-1" d="M33.85,43.71h-6.26c-.78,0-1.42-.63-1.42-1.42v-3.28c0-.78.64-1.42,1.42-1.42h6.26c.78,0,1.42.64,1.42,1.42v3.28c0,.78-.64,1.42-1.42,1.42Z"/>
  <path id="Pfad_535" data-name="Pfad 535" class="cls-1" d="M50.39,43.66h-6.26c-.78,0-1.42-.64-1.42-1.42v-3.28c0-.78.64-1.42,1.42-1.42h6.26c.78,0,1.42.63,1.42,1.42h0v3.28c0,.78-.64,1.42-1.42,1.42h0Z"/>
  <path id="Pfad_536" data-name="Pfad 536" class="cls-1" d="M65.48,43.66h-6.26c-.78,0-1.42-.64-1.42-1.42v-3.28c0-.78.64-1.42,1.42-1.42h6.26c.78,0,1.42.64,1.42,1.42v3.28c0,.78-.63,1.42-1.42,1.42Z"/>
  <path id="Pfad_537" data-name="Pfad 537" class="cls-1" d="M82.29,43.71h-6.26c-.78,0-1.42-.63-1.42-1.42v-3.28c0-.78.63-1.42,1.42-1.42h6.26c.78,0,1.42.64,1.42,1.42v3.28c0,.78-.64,1.42-1.42,1.42Z"/>
  <path id="Pfad_538" data-name="Pfad 538" class="cls-1" d="M18.53,53.61h-6.26c-.78,0-1.42-.64-1.42-1.42v-3.28c0-.78.63-1.42,1.42-1.42h6.26c.78,0,1.42.64,1.42,1.42v3.28c0,.78-.64,1.42-1.42,1.42Z"/>
  <path id="Pfad_539" data-name="Pfad 539" class="cls-1" d="M33.85,53.69h-6.26c-.78,0-1.42-.64-1.42-1.42v-3.28c0-.78.64-1.42,1.42-1.42h6.26c.78,0,1.42.64,1.42,1.42v3.28c0,.78-.64,1.42-1.42,1.42Z"/>
  <path id="Pfad_540" data-name="Pfad 540" class="cls-1" d="M50.39,53.63h-6.26c-.78,0-1.42-.64-1.42-1.42v-3.28c0-.78.64-1.42,1.42-1.42h6.26c.78,0,1.42.63,1.42,1.42h0v3.28c0,.78-.64,1.42-1.42,1.42h0Z"/>
  <path id="Pfad_541" data-name="Pfad 541" class="cls-1" d="M65.48,53.63h-6.26c-.78,0-1.42-.64-1.42-1.42v-3.28c0-.78.64-1.42,1.42-1.42h6.26c.78,0,1.42.64,1.42,1.42v3.28c0,.78-.63,1.42-1.42,1.42Z"/>
  <path id="Pfad_542" data-name="Pfad 542" class="cls-1" d="M18.53,63.67h-6.26c-.78,0-1.42-.64-1.42-1.42v-3.28c0-.78.63-1.42,1.42-1.42h6.26c.78,0,1.42.63,1.42,1.42v3.28c0,.78-.64,1.42-1.42,1.42Z"/>
  <path id="Pfad_543" data-name="Pfad 543" class="cls-1" d="M33.85,63.74h-6.26c-.78,0-1.42-.63-1.42-1.42v-3.28c0-.78.64-1.42,1.42-1.42h6.26c.78,0,1.42.64,1.42,1.42v3.28c0,.78-.64,1.42-1.42,1.42Z"/>
  <path id="Pfad_544" data-name="Pfad 544" class="cls-1" d="M50.39,63.68h-6.26c-.78,0-1.42-.63-1.42-1.42v-3.28c0-.78.64-1.42,1.42-1.42h6.26c.78,0,1.42.63,1.42,1.42h0v3.28c0,.78-.64,1.42-1.42,1.42h0Z"/>
  <path id="Pfad_545" data-name="Pfad 545" class="cls-1" d="M65.48,63.68h-6.26c-.78,0-1.42-.63-1.42-1.42v-3.28c0-.78.64-1.42,1.42-1.42h6.26c.78,0,1.42.64,1.42,1.42v3.28c0,.78-.63,1.42-1.42,1.42Z"/>
  <g id="Gruppe_25" data-name="Gruppe 25">
    <rect id="Rechteck_74" data-name="Rechteck 74" class="cls-1" x="53.28" y="11.91" width="3.73" height="5.17"/>
    <path id="Pfad_547" data-name="Pfad 547" class="cls-1" d="M85.81,11.91h-16.88v5.17h16.88c1.59,0,2.88,1.29,2.88,2.88v8.91H5.88v-8.91c0-1.59,1.29-2.88,2.88-2.88h17.21v-5.17H8.76c-4.44,0-8.04,3.61-8.05,8.05v45.48c0,4.44,3.61,8.04,8.05,8.05h62.16v-5.17H8.76c-1.59,0-2.88-1.29-2.88-2.88v-32.08h82.81v18.23h5.17v-31.62c0-4.44-3.61-8.05-8.05-8.05Z"/>
    <rect id="Rechteck_75" data-name="Rechteck 75" class="cls-1" x="37.89" y="11.91" width="3.47" height="5.17"/>
    <path id="Pfad_548" data-name="Pfad 548" class="cls-1" d="M26.02,17.08c.37,2.98,2.9,5.22,5.91,5.22,3,0,5.53-2.24,5.91-5.22.03-.24.05-.49.05-.74V6.86c0-3.29-2.67-5.95-5.96-5.96-3.29,0-5.95,2.67-5.96,5.96v9.49c0,.25.02.49.05.74Z"/>
    <path id="Pfad_549" data-name="Pfad 549" class="cls-1" d="M25.97,16.34v.74h.05c-.03-.24-.05-.49-.05-.74Z"/>
    <path id="Pfad_550" data-name="Pfad 550" class="cls-1" d="M37.89,16.34c0,.25-.02.49-.05.74h.05v-.74Z"/>
    <path id="Pfad_551" data-name="Pfad 551" class="cls-1" d="M41.41,17.08c.37,2.98,2.9,5.22,5.91,5.22,3,0,5.53-2.24,5.91-5.22.03-.24.05-.49.05-.74V6.86c0-3.29-2.67-5.95-5.96-5.96-3.29,0-5.95,2.67-5.96,5.96v9.49c0,.25.02.49.05.74Z"/>
    <path id="Pfad_552" data-name="Pfad 552" class="cls-1" d="M53.28,16.34c0,.25-.02.49-.05.74h.05v-.74Z"/>
    <path id="Pfad_553" data-name="Pfad 553" class="cls-1" d="M41.36,16.34v.74h.05c-.03-.24-.05-.49-.05-.74Z"/>
    <path id="Pfad_554" data-name="Pfad 554" class="cls-1" d="M57.06,17.08c.37,2.98,2.9,5.22,5.91,5.22,3,0,5.54-2.24,5.91-5.22.03-.24.05-.49.05-.74V6.86c0-3.29-2.67-5.95-5.96-5.96-3.29,0-5.95,2.67-5.96,5.96v9.49c0,.25.02.49.05.74Z"/>
    <path id="Pfad_555" data-name="Pfad 555" class="cls-1" d="M57.01,16.34v.74h.05c-.03-.24-.05-.49-.05-.74Z"/>
    <path id="Pfad_556" data-name="Pfad 556" class="cls-1" d="M68.93,17.08v-.74c0,.25-.02.49-.05.74h.05Z"/>
  </g>
  <path id="Pfad_532" data-name="Pfad 532" class="cls-1" d="M90.45,57.83l-2.24-1.68-6.06,7.56-4.51-3.49-1.75,2.18,6.46,5.45,8.1-10.03Z"/>
  <path id="Pfad_546" data-name="Pfad 546" class="cls-1" d="M82.34,78.47c-9.35-.01-16.93-7.59-16.94-16.94.01-9.35,7.59-16.93,16.94-16.94,9.35.01,16.93,7.59,16.94,16.94-.01,9.35-7.59,16.93-16.94,16.95ZM82.34,49.75c-6.5,0-11.77,5.28-11.78,11.78,0,6.5,5.28,11.77,11.78,11.78,6.5,0,11.77-5.28,11.78-11.78,0-6.5-5.27-11.77-11.78-11.78h0Z"/>
</svg>