<?xml version="1.0" encoding="UTF-8"?>
<svg id="Ebene_1" data-name="Ebene 1" xmlns="http://www.w3.org/2000/svg" viewBox="0 0 32.5 32.5">
  <defs>
    <style>
      .cls-1 {
        fill: #da9918;
        stroke-width: 0px;
      }
    </style>
  </defs>
  <path id="Pfad_583" data-name="Pfad 583" class="cls-1" d="M24.16,17.62c-.21,0-.42-.04-.61-.14-.1-.04-.2-.1-.27.03-.08.15.07.17.15.21.49.25.99.49,1.48.73.39.11.62.51.51.9-.02.08-.06.15-.1.22-.13.28-.27.56-.41.83-.14.37-.55.56-.92.42-.05-.02-.1-.04-.14-.07-.51-.24-1.01-.48-1.52-.73-1.62-.79-3.23-1.59-4.85-2.38-1.77-.87-3.55-1.72-5.32-2.59-.17-.09-.26-.08-.35.11-.21.46-.43.91-.66,1.36-.05.1-.03.23.06.31.61.71.71,1.73.24,2.54-.96,1.93-1.89,3.87-2.83,5.82-.14.22-.3.43-.47.62-.16.25-.4.28-.63.37-.26.12-.55.17-.84.16-.29-.03-.39.11-.49.32-.38.8-.77,1.59-1.15,2.38-.06.16-.17.3-.31.4-.56.42-1.06.92-1.47,1.48-.06.07-.12.14-.19.2-.11.11-.27.15-.41.08-.14-.07-.22-.22-.18-.37.07-.52.17-1.04.29-1.55.04-.17.05-.34.02-.51-.05-.29,0-.58.14-.83.39-.79.76-1.59,1.15-2.38.1-.17.08-.39-.06-.53-.56-.66-.65-1.6-.23-2.35.94-1.92,1.88-3.85,2.82-5.78.35-.82,1.18-1.32,2.07-1.25.15.02.29-.07.34-.21.2-.43.41-.87.62-1.3.08-.17.03-.25-.12-.33-.29-.14-.58-.28-.86-.43-.34-.14-.51-.51-.4-.85.03-.15.02-.27-.13-.29-.2-.03-.34-.31-.59-.09-.39.38-1.01.38-1.4,0-.02-.02-.04-.04-.06-.06-.2-.22-.24-.54-.1-.81.14-.31.3-.62.46-.92.15-.36.55-.54.92-.4.56.18.81.5.74.97-.03.18-.04.32.17.36.19.04.35.32.59.02.21-.28.6-.35.9-.17.28.14.57.25.84.4.19.1.29.06.38-.13.12-.26.24-.52.37-.78.14-.35.52-.53.88-.41.2.05.27,0,.34-.16,1.06-2.19,2.12-4.37,3.18-6.56.31-.64.62-1.28.93-1.92.05-.12.15-.21.27-.25.61-.12,1.21.25,1.38.85.02.42.02.85.01,1.27-.03.22.1.44.31.51.35.15.69.32,1.03.48.12.06.22.1.34-.03.17-.19.45-.23.66-.09.38.18.76.38,1.14.57.18.08.28.26.24.45-.03.23.09.33.27.41.98.46,1.97.93,2.95,1.41.17.08.3.13.45-.03.17-.16.42-.18.61-.05.37.18.74.37,1.11.55.22.07.34.3.3.52-.04.2.07.26.21.33.5.24.99.48,1.48.73.38.13.58.54.45.92-.02.06-.04.11-.08.16-.13.28-.27.56-.41.83-.14.37-.56.56-.93.41-.05-.02-.09-.04-.13-.07-.5-.24-.99-.48-1.49-.71-.1-.04-.22-.2-.32-.01-.09.17.06.21.17.27.61.25.91.94.66,1.56-.03.08-.07.16-.12.23-.68,1.39-1.36,2.78-2.04,4.17-.18.44-.62.71-1.09.68ZM14.57,12.44c0-.19.03-.39.12-.56.71-1.46,1.41-2.93,2.13-4.39.25-.59.93-.86,1.52-.61.03.01.07.03.1.05.11.05.25.21.34,0,.08-.17-.11-.2-.21-.25-.84-.42-1.69-.82-2.53-1.25-.28-.14-.39-.08-.52.19-.75,1.56-1.51,3.12-2.28,4.66-.1.13-.07.32.07.42,0,0,.02.01.03.02.31.22.38.64.18.95-.12.24-.24.47-.36.71-.11.22-.05.35.17.46.61.29,1.22.59,1.83.88.11.05.24.16.32-.02.06-.16-.1-.18-.2-.23-.41-.18-.69-.57-.71-1.02h0ZM21.91,9.44c0,.19-.06.37-.16.53-.67,1.38-1.34,2.76-2.02,4.14-.19.63-.87.99-1.5.79-.11-.03-.22-.08-.31-.15-.1-.04-.22-.16-.3,0-.09.17.09.21.2.26.7.34,1.4.68,2.1,1.02.32.15.64.32.95.47.08.04.18.09.24-.01.08-.13-.03-.18-.12-.23-.04-.02-.08-.04-.12-.06-.61-.25-.91-.94-.66-1.56.02-.06.05-.12.09-.17.13-.27.26-.54.4-.8.6-1.2,1.13-2.43,1.78-3.6.26-.47.84-.68,1.34-.49.13.05.25.11.38.17.1.04.2.08.26-.05.07-.15-.04-.17-.13-.22-1.03-.5-2.06-1-3.09-1.5-.1-.05-.22-.19-.32-.01s.08.21.17.27c.09.06.18.1.27.16.38.22.59.63.56,1.06h0Z"/>
</svg>