<?xml version="1.0" encoding="UTF-8"?>
<svg id="Ebene_1" data-name="Ebene 1" xmlns="http://www.w3.org/2000/svg" viewBox="0 0 100 79.37">
  <defs>
    <style>
      .cls-1 {
        fill: #da9918;
        stroke-width: 0px;
      }
    </style>
  </defs>
  <path id="Pfad_1022" data-name="Pfad 1022" class="cls-1" d="M89.4,35.1C89.4,16.14,71.76.78,50,.78S10.6,16.14,10.6,35.1c0,12.58,7.77,23.58,19.36,29.56-.26,1.02-.39,2.06-.39,3.11-.02,2.4.68,4.75,2.02,6.75,1.83,2.68,5.53,1.15,5.53-2.28-.08-1.24.72-2.36,1.92-2.68,1.32-.11,2.47.87,2.58,2.19.01.14.01.27,0,.41v2.49c-.29,1.87.99,3.62,2.86,3.91,1.87.29,3.62-.99,3.91-2.86.05-.35.05-.7,0-1.05v-2.41c-.08-1.24.72-2.36,1.92-2.68,1.32-.11,2.47.87,2.58,2.19.01.14.01.27,0,.41v2.25c-.31,1.98,1.04,3.83,3.02,4.14,1.98.31,3.83-1.04,4.14-3.02.06-.37.06-.75,0-1.12v-2.25c-.19-1.24.66-2.41,1.9-2.6,1.24-.19,2.41.65,2.6,1.9.04.23.04.47,0,.7-.05,2.95,3.32,4.02,4.54,1.45.87-1.82,1.33-3.82,1.34-5.84,0-1.05-.13-2.09-.39-3.11,11.58-5.97,19.36-16.97,19.36-29.55ZM30.55,44.88c-6.97,0-12.63-5.65-12.63-12.63s5.65-12.63,12.63-12.63c6.97,0,12.63,5.65,12.63,12.63h0c0,6.98-5.65,12.63-12.63,12.63h0ZM52.21,57.74h-4.33c-1.91,0-3.46-1.55-3.46-3.46,0-.61.16-1.21.46-1.73l1.04-1.81,1.59-2.75c.78-1.36,2.52-1.82,3.87-1.04.43.25.79.61,1.04,1.04l1.59,2.75,1.12,1.94c.93,1.62.37,3.68-1.25,4.61-.51.29-1.09.45-1.67.45h0ZM68.65,46.7c-6.33,0-11.45-5.13-11.45-11.45s5.13-11.45,11.45-11.45,11.45,5.13,11.45,11.45h0c0,6.33-5.13,11.45-11.45,11.45Z"/>
</svg>