<?xml version="1.0" encoding="UTF-8"?>
<svg id="Ebene_1" data-name="Ebene 1" xmlns="http://www.w3.org/2000/svg" viewBox="0 0 100 79.37">
  <defs>
    <style>
      .cls-1 {
        fill: #f7f6f5;
        stroke-width: 0px;
      }
    </style>
  </defs>
  <g id="Gruppe_20" data-name="Gruppe 20">
    <path id="Pfad_526" data-name="Pfad 526" class="cls-1" d="M92.64,22.07h-21.19v3.39h21.19c2.02.11,3.58,1.83,3.48,3.86v29.31c.1,2.02-1.46,3.75-3.48,3.86h-5.17l1.45,7.93-9.36-7.92h-32.05c-2.02-.11-3.58-1.83-3.48-3.86h-3.06c-.18,3.8,2.74,7.04,6.54,7.25h31.01l15.01,12.71-2.32-12.71h1.44c3.8-.21,6.72-3.44,6.54-7.25v-29.31c.19-3.81-2.74-7.05-6.54-7.25Z"/>
  </g>
  <path id="Pfad_527" data-name="Pfad 527" class="cls-1" d="M61.85.78H6.92C3.37.97.65,3.98.82,7.53v35.66c-.17,3.54,2.56,6.56,6.1,6.75h4.02l-2.29,12.56,14.83-12.56h38.37c3.54-.19,6.27-3.21,6.1-6.75V7.53c.17-3.54-2.55-6.56-6.1-6.75ZM18.86,21.54c2.01.11,3.56,1.82,3.46,3.83.1,2.01-1.45,3.73-3.46,3.83-2.01-.11-3.56-1.82-3.46-3.83-.1-2.01,1.45-3.73,3.46-3.83ZM32.83,29.2c-2.01-.11-3.56-1.82-3.46-3.83-.1-2.01,1.45-3.73,3.46-3.83,2.01.11,3.56,1.82,3.46,3.83.1,2.01-1.45,3.73-3.46,3.83ZM46.79,29.2c-2.01-.11-3.56-1.82-3.46-3.83-.1-2.01,1.45-3.73,3.46-3.83,2.01.11,3.56,1.82,3.46,3.83.1,2.01-1.45,3.73-3.46,3.83Z"/>
</svg>