<?xml version="1.0" encoding="UTF-8"?>
<svg id="Ebene_1" data-name="Ebene 1" xmlns="http://www.w3.org/2000/svg" viewBox="0 0 100 79.37">
  <defs>
    <style>
      .cls-1 {
        fill: #f7f6f5;
        stroke-width: 0px;
      }
    </style>
  </defs>
  <path id="Suche" class="cls-1" d="M95.95,62.27l-22.87-13.2c4.92-16.34-2.04-33.91-16.81-42.45C38.66-3.55,16.16,2.48,5.99,20.08c-10.16,17.6-4.13,40.11,13.47,50.27,14.78,8.52,33.48,5.76,45.17-6.66l22.87,13.2c2.87,1.66,6.54.67,8.2-2.2l2.44-4.23c1.65-2.87.67-6.54-2.19-8.2ZM54.95,48.35c-5.45,9.43-17.52,12.66-26.96,7.21-9.44-5.45-12.67-17.52-7.22-26.95,0,0,0,0,0,0,5.45-9.44,17.52-12.66,26.96-7.21,9.43,5.45,12.66,17.52,7.21,26.95h0Z"/>
</svg>