<?xml version="1.0" encoding="UTF-8"?>
<svg id="Ebene_1" data-name="Ebene 1" xmlns="http://www.w3.org/2000/svg" viewBox="0 0 100 79.37">
  <defs>
    <style>
      .cls-1 {
        fill: #f7f6f5;
        stroke-width: 0px;
      }
    </style>
  </defs>
  <g id="Gruppe_18" data-name="Gruppe 18">
    <path id="Pfad_524" data-name="Pfad 524" class="cls-1" d="M50,.99c-14.38.02-26.03,11.67-26.04,26.04,0,9.43,5.11,18.12,13.34,22.72-12.82,4.49-22.37,15.34-25.19,28.63h5.58c3.6-14.57,16.49-24.93,31.49-25.33.28,0,.56.02.85.02,14.38-.02,26.03-11.67,26.04-26.04-.02-14.38-11.68-26.04-26.06-26.04ZM50,47.26c-11.17-.01-20.22-9.06-20.23-20.23.01-11.17,9.06-20.22,20.23-20.23,11.17.01,20.22,9.06,20.23,20.23-.01,11.17-9.06,20.22-20.23,20.23Z"/>
    <path id="Pfad_525" data-name="Pfad 525" class="cls-1" d="M75.62,57.32l-3.04,4.58c4.79,4.42,8.17,10.16,9.74,16.49h5.58c-1.72-8.16-6.03-15.55-12.28-21.06Z"/>
  </g>
</svg>