<?xml version="1.0" encoding="UTF-8"?>
<svg id="Ebene_1" data-name="Ebene 1" xmlns="http://www.w3.org/2000/svg" viewBox="0 0 172.3 67.24">
  <defs>
    <style>
      .cls-1 {
        fill: #f7f6f5;
        stroke-width: 0px;
      }

      .cls-2 {
        isolation: isolate;
      }
    </style>
  </defs>
  <g id="Gruppe_3" data-name="Gruppe 3" class="cls-2">
    <g id="Gruppe_2" data-name="Gruppe 2">
      <g id="logo-grau">
        <g id="Gruppe_1" data-name="Gruppe 1">
          <g>
            <path id="Pfad_1-5" data-name="Pfad 1-5" class="cls-1" d="M16.58,60.2s.36-10.74.36-38.92c0-4.03-.09-7.96-.63-9.57-.63-1.88-1.61-2.59-9.66-2.95l-3.67-.18c-.36-.63-.54-4.47-.09-5.63,10.47,0,20.58,0,36.05.36.36.98.18,4.39,0,5.1l-5.9.18c-5.82.18-6.98.54-7.61,2.41-.36,1.07-.45,3.13-.45,7.16,0,32.66.9,41.87.9,41.87-.9.27-6.18.44-9.31.18Z"/>
            <path id="Pfad_1-6" data-name="Pfad 1-6" class="cls-1" d="M16.58,60.2s.36-10.74.36-38.92c0-4.03-.09-7.96-.63-9.57-.63-1.88-1.61-2.59-9.66-2.95l-3.67-.18c-.36-.63-.54-4.47-.09-5.63,10.47,0,20.58,0,36.05.36.36.98.18,4.39,0,5.1l-5.9.18c-5.82.18-6.98.54-7.61,2.41-.36,1.07-.45,3.13-.45,7.16,0,32.66.9,41.87.9,41.87-.9.27-6.18.44-9.31.18Z"/>
          </g>
          <g>
            <path id="Pfad_2-5" data-name="Pfad 2-5" class="cls-1" d="M81.19,47.41c2.32,7.25,2.68,8.32,15.66,8.32,5.11,0,10.22-.3,15.3-.9.45,1.35.36,4.47,0,4.92-6.37.87-12.8,1.32-19.23,1.34-16.11,0-18.34-1.34-20.22-8.5l-2.33-9.12c-.71-2.68-1.52-2.86-6.62-2.86h-.44c-7.16,0-8.77.53-9.4,3.04-1.34,5.28-2.59,16.1-2.59,16.1-.65.09-1.31.12-1.97.09-2.96,0-6.71-.18-7.96-.54,5.1-17.44,9.84-35.79,14.67-55.92,1.97-.18,4.56-.36,6.98-.36,2,0,4.01.12,6,.36,2.77,11.45,6.97,27.73,10.82,39.81l1.34,4.21ZM64.81,18.6c-1.16-4.47-1.61-6.26-2.68-6.26-1.25,0-1.88,2.51-3.05,6.98l-2.41,9.57c-.4,1.34-.67,2.72-.81,4.12,0,2.06,1.17,2.14,6.08,2.14h.45c4.02,0,5.81-.09,5.81-2.24,0-.89-.27-1.79-.71-3.76l-2.69-10.56Z"/>
            <path id="Pfad_2-6" data-name="Pfad 2-6" class="cls-1" d="M81.19,47.4c2.32,7.25,2.68,8.32,15.66,8.32,5.11,0,10.22-.3,15.3-.9.45,1.35.36,4.47,0,4.92-6.37.87-12.8,1.32-19.23,1.34-16.11,0-18.34-1.34-20.22-8.5l-2.33-9.12c-.71-2.68-1.52-2.86-6.62-2.86h-.44c-7.16,0-8.77.53-9.4,3.04-1.34,5.28-2.59,16.1-2.59,16.1-.65.09-1.31.12-1.97.09-2.96,0-6.71-.18-7.96-.54,5.1-17.44,9.84-35.79,14.67-55.92,1.97-.18,4.56-.36,6.98-.36,2,0,4.01.12,6,.36,2.77,11.45,6.97,27.73,10.82,39.81l1.34,4.21ZM64.81,18.6c-1.16-4.47-1.61-6.26-2.68-6.26-1.25,0-1.88,2.51-3.05,6.98l-2.41,9.57c-.4,1.34-.67,2.72-.81,4.12,0,2.06,1.17,2.14,6.08,2.14h.45c4.02,0,5.81-.09,5.81-2.24,0-.89-.27-1.79-.71-3.76l-2.69-10.56Z"/>
          </g>
          <g>
            <path id="Pfad_3-5" data-name="Pfad 3-5" class="cls-1" d="M100.6,47.36s.63-15.79.63-29.22c0-8.05-.98-8.68-5.9-8.68-2.69,0-5.37.27-5.37.27-.44-.18-.98-3.85-.36-6.8,11.45.27,20.75.45,31.58.45.36.89.18,4.29,0,5.01l-3.58.09c-6.62.18-7.96.71-8.41,2.5-.35,2.37-.5,4.76-.44,7.16,0,23.71.54,28.86.54,28.86-2.88.41-5.78.53-8.68.36Z"/>
            <path id="Pfad_3-6" data-name="Pfad 3-6" class="cls-1" d="M100.6,47.36s.63-15.79.63-29.22c0-8.05-.98-8.68-5.9-8.68-2.69,0-5.37.27-5.37.27-.44-.18-.98-3.85-.36-6.8,11.45.27,20.75.45,31.58.45.36.89.18,4.29,0,5.01l-3.58.09c-6.62.18-7.96.71-8.41,2.5-.35,2.37-.5,4.76-.44,7.16,0,23.71.54,28.86.54,28.86-2.88.41-5.78.53-8.68.36Z"/>
          </g>
          <g>
            <path id="Pfad_4-5" data-name="Pfad 4-5" class="cls-1" d="M151.59,60.65c-14.94,0-17.72-4.03-17.72-18.79,0-32.66-.54-37.76-.54-37.76,2.65-.22,5.31-.31,7.96-.27,0,0,.1,23.71.1,30.87,0,11.19,0,14.76.9,16.55.9,1.79,4.12,2.24,9.48,2.24,5.82,0,7.52-.9,8.41-2.68.98-1.97.98-4.92.98-13.42,0-12.08-.71-33.55-.71-33.55,2.95-.22,5.92-.16,8.86.18,0,0,.36,19.95.36,37.84,0,12.97-3.04,18.79-18.08,18.79Z"/>
            <path id="Pfad_4-6" data-name="Pfad 4-6" class="cls-1" d="M151.59,60.65c-14.94,0-17.72-4.03-17.72-18.79,0-32.66-.54-37.76-.54-37.76,2.65-.22,5.31-.31,7.96-.27,0,0,.1,23.71.1,30.87,0,11.19,0,14.76.9,16.55.9,1.79,4.12,2.24,9.48,2.24,5.82,0,7.52-.9,8.41-2.68.98-1.97.98-4.92.98-13.42,0-12.08-.71-33.55-.71-33.55,2.95-.22,5.92-.16,8.86.18,0,0,.36,19.95.36,37.84,0,12.97-3.04,18.79-18.08,18.79Z"/>
          </g>
        </g>
        <g>
          <path id="Pfad_5-5" data-name="Pfad 5-5" class="cls-1" d="M128.72,55.17c-1.21-2.59-4.59-3.56-7.56-2.17-2.97,1.38-4.4,4.6-3.19,7.19.86,1.71,2.61,2.79,4.52,2.8.03.15.08.31.15.45.15.33.4.61.71.79.42.25.83-.2.61-.66-.09-.16-.05-.37.09-.49.17-.1.39-.04.49.13.01.02.02.04.03.06l.16.34c.11.28.43.43.71.32.26-.15.36-.49.21-.75l-.15-.33c-.09-.16-.05-.37.09-.49.17-.1.39-.04.49.13.01.02.02.04.03.06l.14.31c.12.3.45.45.75.34.28-.16.38-.52.22-.8l-.14-.31c-.11-.16-.07-.37.09-.48s.37-.07.48.09c.02.03.04.06.05.1.18.41.71.34.71-.09,0-.3-.06-.61-.19-.88-.07-.14-.15-.28-.25-.4,1.22-1.47,1.52-3.5.76-5.26ZM121.32,60.25c-.95.44-2.08.03-2.53-.92-.44-.95-.03-2.08.92-2.53.95-.44,2.08-.03,2.53.92,0,0,0,0,0,0,.44.95.03,2.08-.92,2.52h0ZM125.16,60.72l-.63.3c-.28.13-.61,0-.74-.27-.04-.09-.06-.19-.05-.28l.03-.34.04-.51c.02-.25.24-.44.49-.42.08,0,.16.04.22.08l.42.29.3.21c.25.17.31.51.13.76-.05.08-.13.14-.21.18ZM126.63,58.07c-.86.4-1.89.03-2.29-.83-.4-.86-.03-1.89.83-2.29.86-.4,1.89-.03,2.29.83,0,0,0,0,0,0,.4.86.03,1.89-.83,2.29Z"/>
          <path id="Pfad_5-6" data-name="Pfad 5-6" class="cls-1" d="M128.72,55.18c-1.21-2.59-4.59-3.56-7.56-2.17-2.97,1.38-4.4,4.6-3.19,7.19.86,1.71,2.61,2.79,4.52,2.8.03.15.08.31.15.45.15.33.4.61.71.79.42.25.83-.2.61-.66-.09-.16-.05-.37.09-.49.17-.1.39-.04.49.13.01.02.02.04.03.06l.16.34c.11.28.43.43.71.32.26-.15.36-.49.21-.75l-.15-.33c-.09-.16-.05-.37.09-.49.17-.1.39-.04.49.13.01.02.02.04.03.06l.14.31c.12.3.45.45.75.34.28-.16.38-.52.22-.8l-.14-.31c-.11-.16-.07-.37.09-.48s.37-.07.48.09c.02.03.04.06.05.1.18.41.71.34.71-.09,0-.3-.06-.61-.19-.88-.07-.14-.15-.28-.25-.4,1.22-1.47,1.52-3.5.76-5.26ZM121.32,60.25c-.95.44-2.08.03-2.53-.92-.44-.95-.03-2.08.92-2.53.95-.44,2.08-.03,2.53.92,0,0,0,0,0,0,.44.95.03,2.08-.92,2.52h0ZM125.16,60.73l-.63.3c-.28.13-.61,0-.74-.27-.04-.09-.06-.19-.05-.28l.03-.34.04-.51c.02-.25.24-.44.49-.42.08,0,.16.04.22.08l.42.29.3.21c.25.17.31.51.13.76-.05.08-.13.14-.21.18ZM126.63,58.08c-.86.4-1.89.03-2.29-.83-.4-.86-.03-1.89.83-2.29.86-.4,1.89-.03,2.29.83,0,0,0,0,0,0,.4.86.03,1.89-.83,2.29Z"/>
        </g>
      </g>
    </g>
    <g id="Gruppe_287" data-name="Gruppe 287">
      <g id="logo-grau-2">
        <g id="Gruppe_1-2" data-name="Gruppe 1-2">
          <g>
            <path id="Pfad_1-7" data-name="Pfad 1-7" class="cls-1" d="M16.58,60.2s.36-10.74.36-38.92c0-4.03-.09-7.96-.63-9.57-.63-1.88-1.61-2.59-9.66-2.95l-3.67-.18c-.36-.63-.54-4.47-.09-5.63,10.47,0,20.58,0,36.05.36.36.98.18,4.39,0,5.1l-5.9.18c-5.82.18-6.98.54-7.61,2.41-.36,1.07-.45,3.13-.45,7.16,0,32.66.9,41.87.9,41.87-.9.27-6.18.44-9.31.18Z"/>
            <path id="Pfad_1-8" data-name="Pfad 1-8" class="cls-1" d="M16.58,60.2s.36-10.74.36-38.92c0-4.03-.09-7.96-.63-9.57-.63-1.88-1.61-2.59-9.66-2.95l-3.67-.18c-.36-.63-.54-4.47-.09-5.63,10.47,0,20.58,0,36.05.36.36.98.18,4.39,0,5.1l-5.9.18c-5.82.18-6.98.54-7.61,2.41-.36,1.07-.45,3.13-.45,7.16,0,32.66.9,41.87.9,41.87-.9.27-6.18.44-9.31.18Z"/>
          </g>
          <g>
            <path id="Pfad_2-7" data-name="Pfad 2-7" class="cls-1" d="M81.19,47.41c2.32,7.25,2.68,8.32,15.66,8.32,5.11,0,10.22-.3,15.3-.9.45,1.35.36,4.47,0,4.92-6.37.87-12.8,1.32-19.23,1.34-16.11,0-18.34-1.34-20.22-8.5l-2.33-9.12c-.71-2.68-1.52-2.86-6.62-2.86h-.44c-7.16,0-8.77.53-9.4,3.04-1.34,5.28-2.59,16.1-2.59,16.1-.65.09-1.31.12-1.97.09-2.96,0-6.71-.18-7.96-.54,5.1-17.44,9.84-35.79,14.67-55.92,1.97-.18,4.56-.36,6.98-.36,2,0,4.01.12,6,.36,2.77,11.45,6.97,27.73,10.82,39.81l1.34,4.21ZM64.81,18.6c-1.16-4.47-1.61-6.26-2.68-6.26-1.25,0-1.88,2.51-3.05,6.98l-2.41,9.57c-.4,1.34-.67,2.72-.81,4.12,0,2.06,1.17,2.14,6.08,2.14h.45c4.02,0,5.81-.09,5.81-2.24,0-.89-.27-1.79-.71-3.76l-2.69-10.56Z"/>
            <path id="Pfad_2-8" data-name="Pfad 2-8" class="cls-1" d="M81.19,47.4c2.32,7.25,2.68,8.32,15.66,8.32,5.11,0,10.22-.3,15.3-.9.45,1.35.36,4.47,0,4.92-6.37.87-12.8,1.32-19.23,1.34-16.11,0-18.34-1.34-20.22-8.5l-2.33-9.12c-.71-2.68-1.52-2.86-6.62-2.86h-.44c-7.16,0-8.77.53-9.4,3.04-1.34,5.28-2.59,16.1-2.59,16.1-.65.09-1.31.12-1.97.09-2.96,0-6.71-.18-7.96-.54,5.1-17.44,9.84-35.79,14.67-55.92,1.97-.18,4.56-.36,6.98-.36,2,0,4.01.12,6,.36,2.77,11.45,6.97,27.73,10.82,39.81l1.34,4.21ZM64.81,18.6c-1.16-4.47-1.61-6.26-2.68-6.26-1.25,0-1.88,2.51-3.05,6.98l-2.41,9.57c-.4,1.34-.67,2.72-.81,4.12,0,2.06,1.17,2.14,6.08,2.14h.45c4.02,0,5.81-.09,5.81-2.24,0-.89-.27-1.79-.71-3.76l-2.69-10.56Z"/>
          </g>
          <g>
            <path id="Pfad_3-7" data-name="Pfad 3-7" class="cls-1" d="M100.6,47.36s.63-15.79.63-29.22c0-8.05-.98-8.68-5.9-8.68-2.69,0-5.37.27-5.37.27-.44-.18-.98-3.85-.36-6.8,11.45.27,20.75.45,31.58.45.36.89.18,4.29,0,5.01l-3.58.09c-6.62.18-7.96.71-8.41,2.5-.35,2.37-.5,4.76-.44,7.16,0,23.71.54,28.86.54,28.86-2.88.41-5.78.53-8.68.36Z"/>
            <path id="Pfad_3-8" data-name="Pfad 3-8" class="cls-1" d="M100.6,47.36s.63-15.79.63-29.22c0-8.05-.98-8.68-5.9-8.68-2.69,0-5.37.27-5.37.27-.44-.18-.98-3.85-.36-6.8,11.45.27,20.75.45,31.58.45.36.89.18,4.29,0,5.01l-3.58.09c-6.62.18-7.96.71-8.41,2.5-.35,2.37-.5,4.76-.44,7.16,0,23.71.54,28.86.54,28.86-2.88.41-5.78.53-8.68.36Z"/>
          </g>
          <g>
            <path id="Pfad_4-7" data-name="Pfad 4-7" class="cls-1" d="M151.59,60.65c-14.94,0-17.72-4.03-17.72-18.79,0-32.66-.54-37.76-.54-37.76,2.65-.22,5.31-.31,7.96-.27,0,0,.1,23.71.1,30.87,0,11.19,0,14.76.9,16.55.9,1.79,4.12,2.24,9.48,2.24,5.82,0,7.52-.9,8.41-2.68.98-1.97.98-4.92.98-13.42,0-12.08-.71-33.55-.71-33.55,2.95-.22,5.92-.16,8.86.18,0,0,.36,19.95.36,37.84,0,12.97-3.04,18.79-18.08,18.79Z"/>
            <path id="Pfad_4-8" data-name="Pfad 4-8" class="cls-1" d="M151.59,60.65c-14.94,0-17.72-4.03-17.72-18.79,0-32.66-.54-37.76-.54-37.76,2.65-.22,5.31-.31,7.96-.27,0,0,.1,23.71.1,30.87,0,11.19,0,14.76.9,16.55.9,1.79,4.12,2.24,9.48,2.24,5.82,0,7.52-.9,8.41-2.68.98-1.97.98-4.92.98-13.42,0-12.08-.71-33.55-.71-33.55,2.95-.22,5.92-.16,8.86.18,0,0,.36,19.95.36,37.84,0,12.97-3.04,18.79-18.08,18.79Z"/>
          </g>
        </g>
        <g>
          <path id="Pfad_5-7" data-name="Pfad 5-7" class="cls-1" d="M128.72,55.17c-1.21-2.59-4.59-3.56-7.56-2.17-2.97,1.38-4.4,4.6-3.19,7.19.86,1.71,2.61,2.79,4.52,2.8.03.15.08.31.15.45.15.33.4.61.71.79.42.25.83-.2.61-.66-.09-.16-.05-.37.09-.49.17-.1.39-.04.49.13.01.02.02.04.03.06l.16.34c.11.28.43.43.71.32.26-.15.36-.49.21-.75l-.15-.33c-.09-.16-.05-.37.09-.49.17-.1.39-.04.49.13.01.02.02.04.03.06l.14.31c.12.3.45.45.75.34.28-.16.38-.52.22-.8l-.14-.31c-.11-.16-.07-.37.09-.48s.37-.07.48.09c.02.03.04.06.05.1.18.41.71.34.71-.09,0-.3-.06-.61-.19-.88-.07-.14-.15-.28-.25-.4,1.22-1.47,1.52-3.5.76-5.26ZM121.32,60.25c-.95.44-2.08.03-2.53-.92-.44-.95-.03-2.08.92-2.53.95-.44,2.08-.03,2.53.92,0,0,0,0,0,0,.44.95.03,2.08-.92,2.52h0ZM125.16,60.72l-.63.3c-.28.13-.61,0-.74-.27-.04-.09-.06-.19-.05-.28l.03-.34.04-.51c.02-.25.24-.44.49-.42.08,0,.16.04.22.08l.42.29.3.21c.25.17.31.51.13.76-.05.08-.13.14-.21.18ZM126.63,58.07c-.86.4-1.89.03-2.29-.83-.4-.86-.03-1.89.83-2.29.86-.4,1.89-.03,2.29.83,0,0,0,0,0,0,.4.86.03,1.89-.83,2.29Z"/>
          <path id="Pfad_5-8" data-name="Pfad 5-8" class="cls-1" d="M128.72,55.18c-1.21-2.59-4.59-3.56-7.56-2.17-2.97,1.38-4.4,4.6-3.19,7.19.86,1.71,2.61,2.79,4.52,2.8.03.15.08.31.15.45.15.33.4.61.71.79.42.25.83-.2.61-.66-.09-.16-.05-.37.09-.49.17-.1.39-.04.49.13.01.02.02.04.03.06l.16.34c.11.28.43.43.71.32.26-.15.36-.49.21-.75l-.15-.33c-.09-.16-.05-.37.09-.49.17-.1.39-.04.49.13.01.02.02.04.03.06l.14.31c.12.3.45.45.75.34.28-.16.38-.52.22-.8l-.14-.31c-.11-.16-.07-.37.09-.48s.37-.07.48.09c.02.03.04.06.05.1.18.41.71.34.71-.09,0-.3-.06-.61-.19-.88-.07-.14-.15-.28-.25-.4,1.22-1.47,1.52-3.5.76-5.26ZM121.32,60.25c-.95.44-2.08.03-2.53-.92-.44-.95-.03-2.08.92-2.53.95-.44,2.08-.03,2.53.92,0,0,0,0,0,0,.44.95.03,2.08-.92,2.52h0ZM125.16,60.73l-.63.3c-.28.13-.61,0-.74-.27-.04-.09-.06-.19-.05-.28l.03-.34.04-.51c.02-.25.24-.44.49-.42.08,0,.16.04.22.08l.42.29.3.21c.25.17.31.51.13.76-.05.08-.13.14-.21.18ZM126.63,58.08c-.86.4-1.89.03-2.29-.83-.4-.86-.03-1.89.83-2.29.86-.4,1.89-.03,2.29.83,0,0,0,0,0,0,.4.86.03,1.89-.83,2.29Z"/>
        </g>
      </g>
    </g>
    <g id="Gruppe_288" data-name="Gruppe 288">
      <g id="logo-grau-3">
        <g id="Gruppe_1-3" data-name="Gruppe 1-3">
          <g>
            <path id="Pfad_1-9" data-name="Pfad 1-9" class="cls-1" d="M16.58,60.2s.36-10.74.36-38.92c0-4.03-.09-7.96-.63-9.57-.63-1.88-1.61-2.59-9.66-2.95l-3.67-.18c-.36-.63-.54-4.47-.09-5.63,10.47,0,20.58,0,36.05.36.36.98.18,4.39,0,5.1l-5.9.18c-5.82.18-6.98.54-7.61,2.41-.36,1.07-.45,3.13-.45,7.16,0,32.66.9,41.87.9,41.87-.9.27-6.18.44-9.31.18Z"/>
            <path id="Pfad_1-10" data-name="Pfad 1-10" class="cls-1" d="M16.58,60.2s.36-10.74.36-38.92c0-4.03-.09-7.96-.63-9.57-.63-1.88-1.61-2.59-9.66-2.95l-3.67-.18c-.36-.63-.54-4.47-.09-5.63,10.47,0,20.58,0,36.05.36.36.98.18,4.39,0,5.1l-5.9.18c-5.82.18-6.98.54-7.61,2.41-.36,1.07-.45,3.13-.45,7.16,0,32.66.9,41.87.9,41.87-.9.27-6.18.44-9.31.18Z"/>
          </g>
          <g>
            <path id="Pfad_2-9" data-name="Pfad 2-9" class="cls-1" d="M81.19,47.41c2.32,7.25,2.68,8.32,15.66,8.32,5.11,0,10.22-.3,15.3-.9.45,1.35.36,4.47,0,4.92-6.37.87-12.8,1.32-19.23,1.34-16.11,0-18.34-1.34-20.22-8.5l-2.33-9.12c-.71-2.68-1.52-2.86-6.62-2.86h-.44c-7.16,0-8.77.53-9.4,3.04-1.34,5.28-2.59,16.1-2.59,16.1-.65.09-1.31.12-1.97.09-2.96,0-6.71-.18-7.96-.54,5.1-17.44,9.84-35.79,14.67-55.92,1.97-.18,4.56-.36,6.98-.36,2,0,4.01.12,6,.36,2.77,11.45,6.97,27.73,10.82,39.81l1.34,4.21ZM64.81,18.6c-1.16-4.47-1.61-6.26-2.68-6.26-1.25,0-1.88,2.51-3.05,6.98l-2.41,9.57c-.4,1.34-.67,2.72-.81,4.12,0,2.06,1.17,2.14,6.08,2.14h.45c4.02,0,5.81-.09,5.81-2.24,0-.89-.27-1.79-.71-3.76l-2.69-10.56Z"/>
            <path id="Pfad_2-10" data-name="Pfad 2-10" class="cls-1" d="M81.19,47.4c2.32,7.25,2.68,8.32,15.66,8.32,5.11,0,10.22-.3,15.3-.9.45,1.35.36,4.47,0,4.92-6.37.87-12.8,1.32-19.23,1.34-16.11,0-18.34-1.34-20.22-8.5l-2.33-9.12c-.71-2.68-1.52-2.86-6.62-2.86h-.44c-7.16,0-8.77.53-9.4,3.04-1.34,5.28-2.59,16.1-2.59,16.1-.65.09-1.31.12-1.97.09-2.96,0-6.71-.18-7.96-.54,5.1-17.44,9.84-35.79,14.67-55.92,1.97-.18,4.56-.36,6.98-.36,2,0,4.01.12,6,.36,2.77,11.45,6.97,27.73,10.82,39.81l1.34,4.21ZM64.81,18.6c-1.16-4.47-1.61-6.26-2.68-6.26-1.25,0-1.88,2.51-3.05,6.98l-2.41,9.57c-.4,1.34-.67,2.72-.81,4.12,0,2.06,1.17,2.14,6.08,2.14h.45c4.02,0,5.81-.09,5.81-2.24,0-.89-.27-1.79-.71-3.76l-2.69-10.56Z"/>
          </g>
          <g>
            <path id="Pfad_3-9" data-name="Pfad 3-9" class="cls-1" d="M100.6,47.36s.63-15.79.63-29.22c0-8.05-.98-8.68-5.9-8.68-2.69,0-5.37.27-5.37.27-.44-.18-.98-3.85-.36-6.8,11.45.27,20.75.45,31.58.45.36.89.18,4.29,0,5.01l-3.58.09c-6.62.18-7.96.71-8.41,2.5-.35,2.37-.5,4.76-.44,7.16,0,23.71.54,28.86.54,28.86-2.88.41-5.78.53-8.68.36Z"/>
            <path id="Pfad_3-10" data-name="Pfad 3-10" class="cls-1" d="M100.6,47.36s.63-15.79.63-29.22c0-8.05-.98-8.68-5.9-8.68-2.69,0-5.37.27-5.37.27-.44-.18-.98-3.85-.36-6.8,11.45.27,20.75.45,31.58.45.36.89.18,4.29,0,5.01l-3.58.09c-6.62.18-7.96.71-8.41,2.5-.35,2.37-.5,4.76-.44,7.16,0,23.71.54,28.86.54,28.86-2.88.41-5.78.53-8.68.36Z"/>
          </g>
          <g>
            <path id="Pfad_4-9" data-name="Pfad 4-9" class="cls-1" d="M151.59,60.65c-14.94,0-17.72-4.03-17.72-18.79,0-32.66-.54-37.76-.54-37.76,2.65-.22,5.31-.31,7.96-.27,0,0,.1,23.71.1,30.87,0,11.19,0,14.76.9,16.55.9,1.79,4.12,2.24,9.48,2.24,5.82,0,7.52-.9,8.41-2.68.98-1.97.98-4.92.98-13.42,0-12.08-.71-33.55-.71-33.55,2.95-.22,5.92-.16,8.86.18,0,0,.36,19.95.36,37.84,0,12.97-3.04,18.79-18.08,18.79Z"/>
            <path id="Pfad_4-10" data-name="Pfad 4-10" class="cls-1" d="M151.59,60.65c-14.94,0-17.72-4.03-17.72-18.79,0-32.66-.54-37.76-.54-37.76,2.65-.22,5.31-.31,7.96-.27,0,0,.1,23.71.1,30.87,0,11.19,0,14.76.9,16.55.9,1.79,4.12,2.24,9.48,2.24,5.82,0,7.52-.9,8.41-2.68.98-1.97.98-4.92.98-13.42,0-12.08-.71-33.55-.71-33.55,2.95-.22,5.92-.16,8.86.18,0,0,.36,19.95.36,37.84,0,12.97-3.04,18.79-18.08,18.79Z"/>
          </g>
        </g>
        <g>
          <path id="Pfad_5-9" data-name="Pfad 5-9" class="cls-1" d="M128.72,55.17c-1.21-2.59-4.59-3.56-7.56-2.17-2.97,1.38-4.4,4.6-3.19,7.19.86,1.71,2.61,2.79,4.52,2.8.03.15.08.31.15.45.15.33.4.61.71.79.42.25.83-.2.61-.66-.09-.16-.05-.37.09-.49.17-.1.39-.04.49.13.01.02.02.04.03.06l.16.34c.11.28.43.43.71.32.26-.15.36-.49.21-.75l-.15-.33c-.09-.16-.05-.37.09-.49.17-.1.39-.04.49.13.01.02.02.04.03.06l.14.31c.12.3.45.45.75.34.28-.16.38-.52.22-.8l-.14-.31c-.11-.16-.07-.37.09-.48s.37-.07.48.09c.02.03.04.06.05.1.18.41.71.34.71-.09,0-.3-.06-.61-.19-.88-.07-.14-.15-.28-.25-.4,1.22-1.47,1.52-3.5.76-5.26ZM121.32,60.25c-.95.44-2.08.03-2.53-.92-.44-.95-.03-2.08.92-2.53.95-.44,2.08-.03,2.53.92,0,0,0,0,0,0,.44.95.03,2.08-.92,2.52h0ZM125.16,60.72l-.63.3c-.28.13-.61,0-.74-.27-.04-.09-.06-.19-.05-.28l.03-.34.04-.51c.02-.25.24-.44.49-.42.08,0,.16.04.22.08l.42.29.3.21c.25.17.31.51.13.76-.05.08-.13.14-.21.18ZM126.63,58.07c-.86.4-1.89.03-2.29-.83-.4-.86-.03-1.89.83-2.29.86-.4,1.89-.03,2.29.83,0,0,0,0,0,0,.4.86.03,1.89-.83,2.29Z"/>
          <path id="Pfad_5-10" data-name="Pfad 5-10" class="cls-1" d="M128.72,55.18c-1.21-2.59-4.59-3.56-7.56-2.17-2.97,1.38-4.4,4.6-3.19,7.19.86,1.71,2.61,2.79,4.52,2.8.03.15.08.31.15.45.15.33.4.61.71.79.42.25.83-.2.61-.66-.09-.16-.05-.37.09-.49.17-.1.39-.04.49.13.01.02.02.04.03.06l.16.34c.11.28.43.43.71.32.26-.15.36-.49.21-.75l-.15-.33c-.09-.16-.05-.37.09-.49.17-.1.39-.04.49.13.01.02.02.04.03.06l.14.31c.12.3.45.45.75.34.28-.16.38-.52.22-.8l-.14-.31c-.11-.16-.07-.37.09-.48s.37-.07.48.09c.02.03.04.06.05.1.18.41.71.34.71-.09,0-.3-.06-.61-.19-.88-.07-.14-.15-.28-.25-.4,1.22-1.47,1.52-3.5.76-5.26ZM121.32,60.25c-.95.44-2.08.03-2.53-.92-.44-.95-.03-2.08.92-2.53.95-.44,2.08-.03,2.53.92,0,0,0,0,0,0,.44.95.03,2.08-.92,2.52h0ZM125.16,60.73l-.63.3c-.28.13-.61,0-.74-.27-.04-.09-.06-.19-.05-.28l.03-.34.04-.51c.02-.25.24-.44.49-.42.08,0,.16.04.22.08l.42.29.3.21c.25.17.31.51.13.76-.05.08-.13.14-.21.18ZM126.63,58.08c-.86.4-1.89.03-2.29-.83-.4-.86-.03-1.89.83-2.29.86-.4,1.89-.03,2.29.83,0,0,0,0,0,0,.4.86.03,1.89-.83,2.29Z"/>
        </g>
      </g>
    </g>
    <g id="Gruppe_289" data-name="Gruppe 289">
      <g id="logo-grau-4">
        <g id="Gruppe_1-4" data-name="Gruppe 1-4">
          <g>
            <path id="Pfad_1-11" data-name="Pfad 1-11" class="cls-1" d="M16.58,60.2s.36-10.74.36-38.92c0-4.03-.09-7.96-.63-9.57-.63-1.88-1.61-2.59-9.66-2.95l-3.67-.18c-.36-.63-.54-4.47-.09-5.63,10.47,0,20.58,0,36.05.36.36.98.18,4.39,0,5.1l-5.9.18c-5.82.18-6.98.54-7.61,2.41-.36,1.07-.45,3.13-.45,7.16,0,32.66.9,41.87.9,41.87-.9.27-6.18.44-9.31.18Z"/>
            <path id="Pfad_1-12" data-name="Pfad 1-12" class="cls-1" d="M16.58,60.2s.36-10.74.36-38.92c0-4.03-.09-7.96-.63-9.57-.63-1.88-1.61-2.59-9.66-2.95l-3.67-.18c-.36-.63-.54-4.47-.09-5.63,10.47,0,20.58,0,36.05.36.36.98.18,4.39,0,5.1l-5.9.18c-5.82.18-6.98.54-7.61,2.41-.36,1.07-.45,3.13-.45,7.16,0,32.66.9,41.87.9,41.87-.9.27-6.18.44-9.31.18Z"/>
          </g>
          <g>
            <path id="Pfad_2-11" data-name="Pfad 2-11" class="cls-1" d="M81.19,47.41c2.32,7.25,2.68,8.32,15.66,8.32,5.11,0,10.22-.3,15.3-.9.45,1.35.36,4.47,0,4.92-6.37.87-12.8,1.32-19.23,1.34-16.11,0-18.34-1.34-20.22-8.5l-2.33-9.12c-.71-2.68-1.52-2.86-6.62-2.86h-.44c-7.16,0-8.77.53-9.4,3.04-1.34,5.28-2.59,16.1-2.59,16.1-.65.09-1.31.12-1.97.09-2.96,0-6.71-.18-7.96-.54,5.1-17.44,9.84-35.79,14.67-55.92,1.97-.18,4.56-.36,6.98-.36,2,0,4.01.12,6,.36,2.77,11.45,6.97,27.73,10.82,39.81l1.34,4.21ZM64.81,18.6c-1.16-4.47-1.61-6.26-2.68-6.26-1.25,0-1.88,2.51-3.05,6.98l-2.41,9.57c-.4,1.34-.67,2.72-.81,4.12,0,2.06,1.17,2.14,6.08,2.14h.45c4.02,0,5.81-.09,5.81-2.24,0-.89-.27-1.79-.71-3.76l-2.69-10.56Z"/>
            <path id="Pfad_2-12" data-name="Pfad 2-12" class="cls-1" d="M81.19,47.4c2.32,7.25,2.68,8.32,15.66,8.32,5.11,0,10.22-.3,15.3-.9.45,1.35.36,4.47,0,4.92-6.37.87-12.8,1.32-19.23,1.34-16.11,0-18.34-1.34-20.22-8.5l-2.33-9.12c-.71-2.68-1.52-2.86-6.62-2.86h-.44c-7.16,0-8.77.53-9.4,3.04-1.34,5.28-2.59,16.1-2.59,16.1-.65.09-1.31.12-1.97.09-2.96,0-6.71-.18-7.96-.54,5.1-17.44,9.84-35.79,14.67-55.92,1.97-.18,4.56-.36,6.98-.36,2,0,4.01.12,6,.36,2.77,11.45,6.97,27.73,10.82,39.81l1.34,4.21ZM64.81,18.6c-1.16-4.47-1.61-6.26-2.68-6.26-1.25,0-1.88,2.51-3.05,6.98l-2.41,9.57c-.4,1.34-.67,2.72-.81,4.12,0,2.06,1.17,2.14,6.08,2.14h.45c4.02,0,5.81-.09,5.81-2.24,0-.89-.27-1.79-.71-3.76l-2.69-10.56Z"/>
          </g>
          <g>
            <path id="Pfad_3-11" data-name="Pfad 3-11" class="cls-1" d="M100.6,47.36s.63-15.79.63-29.22c0-8.05-.98-8.68-5.9-8.68-2.69,0-5.37.27-5.37.27-.44-.18-.98-3.85-.36-6.8,11.45.27,20.75.45,31.58.45.36.89.18,4.29,0,5.01l-3.58.09c-6.62.18-7.96.71-8.41,2.5-.35,2.37-.5,4.76-.44,7.16,0,23.71.54,28.86.54,28.86-2.88.41-5.78.53-8.68.36Z"/>
            <path id="Pfad_3-12" data-name="Pfad 3-12" class="cls-1" d="M100.6,47.36s.63-15.79.63-29.22c0-8.05-.98-8.68-5.9-8.68-2.69,0-5.37.27-5.37.27-.44-.18-.98-3.85-.36-6.8,11.45.27,20.75.45,31.58.45.36.89.18,4.29,0,5.01l-3.58.09c-6.62.18-7.96.71-8.41,2.5-.35,2.37-.5,4.76-.44,7.16,0,23.71.54,28.86.54,28.86-2.88.41-5.78.53-8.68.36Z"/>
          </g>
          <g>
            <path id="Pfad_4-11" data-name="Pfad 4-11" class="cls-1" d="M151.59,60.65c-14.94,0-17.72-4.03-17.72-18.79,0-32.66-.54-37.76-.54-37.76,2.65-.22,5.31-.31,7.96-.27,0,0,.1,23.71.1,30.87,0,11.19,0,14.76.9,16.55.9,1.79,4.12,2.24,9.48,2.24,5.82,0,7.52-.9,8.41-2.68.98-1.97.98-4.92.98-13.42,0-12.08-.71-33.55-.71-33.55,2.95-.22,5.92-.16,8.86.18,0,0,.36,19.95.36,37.84,0,12.97-3.04,18.79-18.08,18.79Z"/>
            <path id="Pfad_4-12" data-name="Pfad 4-12" class="cls-1" d="M151.59,60.65c-14.94,0-17.72-4.03-17.72-18.79,0-32.66-.54-37.76-.54-37.76,2.65-.22,5.31-.31,7.96-.27,0,0,.1,23.71.1,30.87,0,11.19,0,14.76.9,16.55.9,1.79,4.12,2.24,9.48,2.24,5.82,0,7.52-.9,8.41-2.68.98-1.97.98-4.92.98-13.42,0-12.08-.71-33.55-.71-33.55,2.95-.22,5.92-.16,8.86.18,0,0,.36,19.95.36,37.84,0,12.97-3.04,18.79-18.08,18.79Z"/>
          </g>
        </g>
        <g>
          <path id="Pfad_5-11" data-name="Pfad 5-11" class="cls-1" d="M128.72,55.17c-1.21-2.59-4.59-3.56-7.56-2.17-2.97,1.38-4.4,4.6-3.19,7.19.86,1.71,2.61,2.79,4.52,2.8.03.15.08.31.15.45.15.33.4.61.71.79.42.25.83-.2.61-.66-.09-.16-.05-.37.09-.49.17-.1.39-.04.49.13.01.02.02.04.03.06l.16.34c.11.28.43.43.71.32.26-.15.36-.49.21-.75l-.15-.33c-.09-.16-.05-.37.09-.49.17-.1.39-.04.49.13.01.02.02.04.03.06l.14.31c.12.3.45.45.75.34.28-.16.38-.52.22-.8l-.14-.31c-.11-.16-.07-.37.09-.48s.37-.07.48.09c.02.03.04.06.05.1.18.41.71.34.71-.09,0-.3-.06-.61-.19-.88-.07-.14-.15-.28-.25-.4,1.22-1.47,1.52-3.5.76-5.26ZM121.32,60.25c-.95.44-2.08.03-2.53-.92-.44-.95-.03-2.08.92-2.53.95-.44,2.08-.03,2.53.92,0,0,0,0,0,0,.44.95.03,2.08-.92,2.52h0ZM125.16,60.72l-.63.3c-.28.13-.61,0-.74-.27-.04-.09-.06-.19-.05-.28l.03-.34.04-.51c.02-.25.24-.44.49-.42.08,0,.16.04.22.08l.42.29.3.21c.25.17.31.51.13.76-.05.08-.13.14-.21.18ZM126.63,58.07c-.86.4-1.89.03-2.29-.83-.4-.86-.03-1.89.83-2.29.86-.4,1.89-.03,2.29.83,0,0,0,0,0,0,.4.86.03,1.89-.83,2.29Z"/>
          <path id="Pfad_5-12" data-name="Pfad 5-12" class="cls-1" d="M128.72,55.18c-1.21-2.59-4.59-3.56-7.56-2.17-2.97,1.38-4.4,4.6-3.19,7.19.86,1.71,2.61,2.79,4.52,2.8.03.15.08.31.15.45.15.33.4.61.71.79.42.25.83-.2.61-.66-.09-.16-.05-.37.09-.49.17-.1.39-.04.49.13.01.02.02.04.03.06l.16.34c.11.28.43.43.71.32.26-.15.36-.49.21-.75l-.15-.33c-.09-.16-.05-.37.09-.49.17-.1.39-.04.49.13.01.02.02.04.03.06l.14.31c.12.3.45.45.75.34.28-.16.38-.52.22-.8l-.14-.31c-.11-.16-.07-.37.09-.48s.37-.07.48.09c.02.03.04.06.05.1.18.41.71.34.71-.09,0-.3-.06-.61-.19-.88-.07-.14-.15-.28-.25-.4,1.22-1.47,1.52-3.5.76-5.26ZM121.32,60.25c-.95.44-2.08.03-2.53-.92-.44-.95-.03-2.08.92-2.53.95-.44,2.08-.03,2.53.92,0,0,0,0,0,0,.44.95.03,2.08-.92,2.52h0ZM125.16,60.73l-.63.3c-.28.13-.61,0-.74-.27-.04-.09-.06-.19-.05-.28l.03-.34.04-.51c.02-.25.24-.44.49-.42.08,0,.16.04.22.08l.42.29.3.21c.25.17.31.51.13.76-.05.08-.13.14-.21.18ZM126.63,58.08c-.86.4-1.89.03-2.29-.83-.4-.86-.03-1.89.83-2.29.86-.4,1.89-.03,2.29.83,0,0,0,0,0,0,.4.86.03,1.89-.83,2.29Z"/>
        </g>
      </g>
    </g>
  </g>
</svg>