<svg xmlns="http://www.w3.org/2000/svg" xmlns:xlink="http://www.w3.org/1999/xlink" width="260.429" height="98.489" viewBox="0 0 260.429 98.489">
  <defs>
    <filter id="Pfad_1" x="0" y="0" width="56.949" height="89.473" filterUnits="userSpaceOnUse">
      <feOffset dy="5" input="SourceAlpha"/>
      <feGaussianBlur stdDeviation="4" result="blur"/>
      <feFlood flood-opacity="0.451" result="color"/>
      <feComposite operator="out" in="SourceGraphic" in2="blur"/>
      <feComposite operator="in" in="color"/>
      <feComposite operator="in" in2="SourceGraphic"/>
    </filter>
    <filter id="Pfad_2" x="60.416" y="0.135" width="110.8" height="90.526" filterUnits="userSpaceOnUse">
      <feOffset dy="5" input="SourceAlpha"/>
      <feGaussianBlur stdDeviation="4" result="blur-2"/>
      <feFlood flood-opacity="0.451" result="color-2"/>
      <feComposite operator="out" in="SourceGraphic" in2="blur-2"/>
      <feComposite operator="in" in="color-2"/>
      <feComposite operator="in" in2="SourceGraphic"/>
    </filter>
    <filter id="Pfad_3" x="135.147" y="0" width="50.002" height="69.386" filterUnits="userSpaceOnUse">
      <feOffset dy="5" input="SourceAlpha"/>
      <feGaussianBlur stdDeviation="4" result="blur-3"/>
      <feFlood flood-opacity="0.451" result="color-3"/>
      <feComposite operator="out" in="SourceGraphic" in2="blur-3"/>
      <feComposite operator="in" in="color-3"/>
      <feComposite operator="in" in2="SourceGraphic"/>
    </filter>
    <filter id="Pfad_4" x="203.791" y="1.208" width="56.639" height="88.76" filterUnits="userSpaceOnUse">
      <feOffset dy="5" input="SourceAlpha"/>
      <feGaussianBlur stdDeviation="4" result="blur-4"/>
      <feFlood flood-opacity="0.451" result="color-4"/>
      <feComposite operator="out" in="SourceGraphic" in2="blur-4"/>
      <feComposite operator="in" in="color-4"/>
      <feComposite operator="in" in2="SourceGraphic"/>
    </filter>
    <filter id="Pfad_5" x="176.429" y="74.135" width="24.466" height="24.353" filterUnits="userSpaceOnUse">
      <feOffset dy="5" input="SourceAlpha"/>
      <feGaussianBlur stdDeviation="4" result="blur-5"/>
      <feFlood flood-opacity="0.361" result="color-5"/>
      <feComposite operator="out" in="SourceGraphic" in2="blur-5"/>
      <feComposite operator="in" in="color-5"/>
      <feComposite operator="in" in2="SourceGraphic"/>
    </filter>
    <filter id="Pfad_1-2" x="0" y="0" width="56.949" height="89.473" filterUnits="userSpaceOnUse">
      <feOffset dy="5" input="SourceAlpha"/>
      <feGaussianBlur stdDeviation="4" result="blur-6"/>
      <feFlood flood-opacity="0.451" result="color-6"/>
      <feComposite operator="out" in="SourceGraphic" in2="blur-6"/>
      <feComposite operator="in" in="color-6"/>
      <feComposite operator="in" in2="SourceGraphic"/>
    </filter>
    <filter id="Pfad_2-2" x="60.416" y="0.135" width="110.8" height="90.526" filterUnits="userSpaceOnUse">
      <feOffset dy="5" input="SourceAlpha"/>
      <feGaussianBlur stdDeviation="4" result="blur-7"/>
      <feFlood flood-opacity="0.451" result="color-7"/>
      <feComposite operator="out" in="SourceGraphic" in2="blur-7"/>
      <feComposite operator="in" in="color-7"/>
      <feComposite operator="in" in2="SourceGraphic"/>
    </filter>
    <filter id="Pfad_3-2" x="135.147" y="0" width="50.002" height="69.386" filterUnits="userSpaceOnUse">
      <feOffset dy="5" input="SourceAlpha"/>
      <feGaussianBlur stdDeviation="4" result="blur-8"/>
      <feFlood flood-opacity="0.451" result="color-8"/>
      <feComposite operator="out" in="SourceGraphic" in2="blur-8"/>
      <feComposite operator="in" in="color-8"/>
      <feComposite operator="in" in2="SourceGraphic"/>
    </filter>
    <filter id="Pfad_4-2" x="203.791" y="1.208" width="56.639" height="88.76" filterUnits="userSpaceOnUse">
      <feOffset dy="5" input="SourceAlpha"/>
      <feGaussianBlur stdDeviation="4" result="blur-9"/>
      <feFlood flood-opacity="0.451" result="color-9"/>
      <feComposite operator="out" in="SourceGraphic" in2="blur-9"/>
      <feComposite operator="in" in="color-9"/>
      <feComposite operator="in" in2="SourceGraphic"/>
    </filter>
    <filter id="Pfad_5-2" x="176.429" y="74.135" width="24.466" height="24.353" filterUnits="userSpaceOnUse">
      <feOffset dy="5" input="SourceAlpha"/>
      <feGaussianBlur stdDeviation="4" result="blur-10"/>
      <feFlood flood-opacity="0.361" result="color-10"/>
      <feComposite operator="out" in="SourceGraphic" in2="blur-10"/>
      <feComposite operator="in" in="color-10"/>
      <feComposite operator="in" in2="SourceGraphic"/>
    </filter>
    <filter id="Pfad_1-3" x="0" y="0" width="56.949" height="89.473" filterUnits="userSpaceOnUse">
      <feOffset dy="5" input="SourceAlpha"/>
      <feGaussianBlur stdDeviation="4" result="blur-11"/>
      <feFlood flood-opacity="0.451" result="color-11"/>
      <feComposite operator="out" in="SourceGraphic" in2="blur-11"/>
      <feComposite operator="in" in="color-11"/>
      <feComposite operator="in" in2="SourceGraphic"/>
    </filter>
    <filter id="Pfad_2-3" x="60.416" y="0.135" width="110.8" height="90.526" filterUnits="userSpaceOnUse">
      <feOffset dy="5" input="SourceAlpha"/>
      <feGaussianBlur stdDeviation="4" result="blur-12"/>
      <feFlood flood-opacity="0.451" result="color-12"/>
      <feComposite operator="out" in="SourceGraphic" in2="blur-12"/>
      <feComposite operator="in" in="color-12"/>
      <feComposite operator="in" in2="SourceGraphic"/>
    </filter>
    <filter id="Pfad_3-3" x="135.147" y="0" width="50.002" height="69.386" filterUnits="userSpaceOnUse">
      <feOffset dy="5" input="SourceAlpha"/>
      <feGaussianBlur stdDeviation="4" result="blur-13"/>
      <feFlood flood-opacity="0.451" result="color-13"/>
      <feComposite operator="out" in="SourceGraphic" in2="blur-13"/>
      <feComposite operator="in" in="color-13"/>
      <feComposite operator="in" in2="SourceGraphic"/>
    </filter>
    <filter id="Pfad_4-3" x="203.791" y="1.208" width="56.639" height="88.76" filterUnits="userSpaceOnUse">
      <feOffset dy="5" input="SourceAlpha"/>
      <feGaussianBlur stdDeviation="4" result="blur-14"/>
      <feFlood flood-opacity="0.451" result="color-14"/>
      <feComposite operator="out" in="SourceGraphic" in2="blur-14"/>
      <feComposite operator="in" in="color-14"/>
      <feComposite operator="in" in2="SourceGraphic"/>
    </filter>
    <filter id="Pfad_5-3" x="176.429" y="74.135" width="24.466" height="24.353" filterUnits="userSpaceOnUse">
      <feOffset dy="5" input="SourceAlpha"/>
      <feGaussianBlur stdDeviation="4" result="blur-15"/>
      <feFlood flood-opacity="0.361" result="color-15"/>
      <feComposite operator="out" in="SourceGraphic" in2="blur-15"/>
      <feComposite operator="in" in="color-15"/>
      <feComposite operator="in" in2="SourceGraphic"/>
    </filter>
    <filter id="Pfad_1-4" x="0" y="0" width="56.949" height="89.473" filterUnits="userSpaceOnUse">
      <feOffset dy="5" input="SourceAlpha"/>
      <feGaussianBlur stdDeviation="4" result="blur-16"/>
      <feFlood flood-opacity="0.451" result="color-16"/>
      <feComposite operator="out" in="SourceGraphic" in2="blur-16"/>
      <feComposite operator="in" in="color-16"/>
      <feComposite operator="in" in2="SourceGraphic"/>
    </filter>
    <filter id="Pfad_2-4" x="60.416" y="0.135" width="110.8" height="90.526" filterUnits="userSpaceOnUse">
      <feOffset dy="5" input="SourceAlpha"/>
      <feGaussianBlur stdDeviation="4" result="blur-17"/>
      <feFlood flood-opacity="0.451" result="color-17"/>
      <feComposite operator="out" in="SourceGraphic" in2="blur-17"/>
      <feComposite operator="in" in="color-17"/>
      <feComposite operator="in" in2="SourceGraphic"/>
    </filter>
    <filter id="Pfad_3-4" x="135.147" y="0" width="50.002" height="69.386" filterUnits="userSpaceOnUse">
      <feOffset dy="5" input="SourceAlpha"/>
      <feGaussianBlur stdDeviation="4" result="blur-18"/>
      <feFlood flood-opacity="0.451" result="color-18"/>
      <feComposite operator="out" in="SourceGraphic" in2="blur-18"/>
      <feComposite operator="in" in="color-18"/>
      <feComposite operator="in" in2="SourceGraphic"/>
    </filter>
    <filter id="Pfad_4-4" x="203.791" y="1.208" width="56.639" height="88.76" filterUnits="userSpaceOnUse">
      <feOffset dy="5" input="SourceAlpha"/>
      <feGaussianBlur stdDeviation="4" result="blur-19"/>
      <feFlood flood-opacity="0.451" result="color-19"/>
      <feComposite operator="out" in="SourceGraphic" in2="blur-19"/>
      <feComposite operator="in" in="color-19"/>
      <feComposite operator="in" in2="SourceGraphic"/>
    </filter>
    <filter id="Pfad_5-4" x="176.429" y="74.135" width="24.466" height="24.353" filterUnits="userSpaceOnUse">
      <feOffset dy="5" input="SourceAlpha"/>
      <feGaussianBlur stdDeviation="4" result="blur-20"/>
      <feFlood flood-opacity="0.361" result="color-20"/>
      <feComposite operator="out" in="SourceGraphic" in2="blur-20"/>
      <feComposite operator="in" in="color-20"/>
      <feComposite operator="in" in2="SourceGraphic"/>
    </filter>
  </defs>
  <g id="Gruppe_3" data-name="Gruppe 3" transform="translate(-310 -642)" style="isolation: isolate">
    <g id="Gruppe_2" data-name="Gruppe 2" transform="translate(310 642)">
      <g id="logo-grau">
        <g id="Gruppe_1" data-name="Gruppe 1">
          <g data-type="innerShadowGroup">
            <path id="Pfad_1-5" data-name="Pfad 1" d="M191.2,186.336s.558-16.743.558-60.678c0-6.276-.137-12.415-.976-14.924-.978-2.932-2.512-4.045-15.062-4.606L170,105.851c-.555-.978-.841-6.974-.137-8.785,16.323,0,32.085,0,56.21.555.558,1.533.283,6.837,0,7.95l-9.2.28c-9.074.278-10.879.838-11.857,3.765-.555,1.674-.7,4.883-.7,11.157,0,50.917,1.4,65.284,1.4,65.284C204.309,186.471,196.087,186.749,191.2,186.336Z" transform="translate(-169.444 -97.066)" fill="#da9918"/>
            <g transform="matrix(1, 0, 0, 1, 0, 0)" filter="url(#Pfad_1)">
              <path id="Pfad_1-6" data-name="Pfad 1" d="M191.2,186.336s.558-16.743.558-60.678c0-6.276-.137-12.415-.976-14.924-.978-2.932-2.512-4.045-15.062-4.606L170,105.851c-.555-.978-.841-6.974-.137-8.785,16.323,0,32.085,0,56.21.555.558,1.533.283,6.837,0,7.95l-9.2.28c-9.074.278-10.879.838-11.857,3.765-.555,1.674-.7,4.883-.7,11.157,0,50.917,1.4,65.284,1.4,65.284C204.309,186.471,196.087,186.749,191.2,186.336Z" transform="translate(-169.44 -97.07)" fill="#fff"/>
            </g>
          </g>
          <g data-type="innerShadowGroup">
            <path id="Pfad_2-5" data-name="Pfad 2" d="M253.065,166.3c3.622,11.3,4.18,12.976,24.407,12.976a203.086,203.086,0,0,0,23.85-1.4c.7,2.1.558,6.974,0,7.672a227.147,227.147,0,0,1-29.983,2.091c-25.111,0-28.6-2.091-31.528-13.248l-3.625-14.226c-1.113-4.185-2.374-4.463-10.324-4.463h-.692c-11.165,0-13.674.833-14.652,4.74-2.088,8.23-4.042,25.105-4.042,25.105a18.311,18.311,0,0,1-3.067.143c-4.611,0-10.462-.283-12.413-.841,7.95-27.194,15.342-55.795,22.874-87.174,3.067-.283,7.109-.563,10.879-.563a75.24,75.24,0,0,1,9.349.563c4.314,17.854,10.868,43.236,16.875,62.068Zm-25.531-44.913c-1.808-6.974-2.512-9.764-4.18-9.764-1.954,0-2.932,3.908-4.749,10.882l-3.759,14.924a34.879,34.879,0,0,0-1.261,6.417c0,3.207,1.819,3.344,9.483,3.344h.706c6.268,0,9.063-.137,9.063-3.487,0-1.39-.421-2.789-1.113-5.856Z" transform="translate(-130.581 -96.979)" fill="#da9918"/>
            <g transform="matrix(1, 0, 0, 1, 0, 0)" filter="url(#Pfad_2)">
              <path id="Pfad_2-6" data-name="Pfad 2" d="M253.065,166.3c3.622,11.3,4.18,12.976,24.407,12.976a203.086,203.086,0,0,0,23.85-1.4c.7,2.1.558,6.974,0,7.672a227.147,227.147,0,0,1-29.983,2.091c-25.111,0-28.6-2.091-31.528-13.248l-3.625-14.226c-1.113-4.185-2.374-4.463-10.324-4.463h-.692c-11.165,0-13.674.833-14.652,4.74-2.088,8.23-4.042,25.105-4.042,25.105a18.311,18.311,0,0,1-3.067.143c-4.611,0-10.462-.283-12.413-.841,7.95-27.194,15.342-55.795,22.874-87.174,3.067-.283,7.109-.563,10.879-.563a75.24,75.24,0,0,1,9.349.563c4.314,17.854,10.868,43.236,16.875,62.068Zm-25.531-44.913c-1.808-6.974-2.512-9.764-4.18-9.764-1.954,0-2.932,3.908-4.749,10.882l-3.759,14.924a34.879,34.879,0,0,0-1.261,6.417c0,3.207,1.819,3.344,9.483,3.344h.706c6.268,0,9.063-.137,9.063-3.487,0-1.39-.421-2.789-1.113-5.856Z" transform="translate(-130.58 -96.98)" fill="#fff"/>
            </g>
          </g>
          <g data-type="innerShadowGroup">
            <path id="Pfad_3-5" data-name="Pfad 3" d="M235.251,166.322s.976-24.62.976-45.549c0-12.55-1.533-13.525-9.2-13.525-4.191,0-8.37.42-8.37.42-.692-.283-1.533-6-.555-10.6,17.854.415,32.357.7,49.235.7.555,1.39.283,6.694,0,7.807l-5.578.143c-10.324.278-12.413,1.113-13.116,3.9a65.636,65.636,0,0,0-.692,11.157c0,36.971.838,44.991.838,44.991A68.4,68.4,0,0,1,235.251,166.322Z" transform="translate(-82.509 -97.066)" fill="#da9918"/>
            <g transform="matrix(1, 0, 0, 1, 0, 0)" filter="url(#Pfad_3)">
              <path id="Pfad_3-6" data-name="Pfad 3" d="M235.251,166.322s.976-24.62.976-45.549c0-12.55-1.533-13.525-9.2-13.525-4.191,0-8.37.42-8.37.42-.692-.283-1.533-6-.555-10.6,17.854.415,32.357.7,49.235.7.555,1.39.283,6.694,0,7.807l-5.578.143c-10.324.278-12.413,1.113-13.116,3.9a65.636,65.636,0,0,0-.692,11.157c0,36.971.838,44.991.838,44.991A68.4,68.4,0,0,1,235.251,166.322Z" transform="translate(-82.51 -97.07)" fill="#fff"/>
            </g>
          </g>
          <g data-type="innerShadowGroup">
            <path id="Pfad_4-5" data-name="Pfad 4" d="M270.6,186.257c-23.295,0-27.62-6.282-27.62-29.291,0-50.917-.841-58.867-.841-58.867a122.532,122.532,0,0,1,12.413-.421s.149,36.968.149,48.122c0,17.439,0,23.014,1.4,25.809s6.419,3.487,14.779,3.487c9.074,0,11.72-1.4,13.116-4.185,1.533-3.072,1.533-7.672,1.533-20.926,0-18.832-1.113-52.308-1.113-52.308a73.8,73.8,0,0,1,13.811.283s.555,31.1.555,59C298.783,177.186,294.037,186.257,270.6,186.257Z" transform="translate(-38.353 -96.289)" fill="#da9918"/>
            <g transform="matrix(1, 0, 0, 1, 0, 0)" filter="url(#Pfad_4)">
              <path id="Pfad_4-6" data-name="Pfad 4" d="M270.6,186.257c-23.295,0-27.62-6.282-27.62-29.291,0-50.917-.841-58.867-.841-58.867a122.532,122.532,0,0,1,12.413-.421s.149,36.968.149,48.122c0,17.439,0,23.014,1.4,25.809s6.419,3.487,14.779,3.487c9.074,0,11.72-1.4,13.116-4.185,1.533-3.072,1.533-7.672,1.533-20.926,0-18.832-1.113-52.308-1.113-52.308a73.8,73.8,0,0,1,13.811.283s.555,31.1.555,59C298.783,177.186,294.037,186.257,270.6,186.257Z" transform="translate(-38.35 -96.29)" fill="#fff"/>
            </g>
          </g>
        </g>
        <g data-type="innerShadowGroup">
          <path id="Pfad_5-5" data-name="Pfad 5" d="M18.484,8.051C18.484,3.6,14.347,0,9.242,0S0,3.6,0,8.051a7.915,7.915,0,0,0,4.541,6.932,2.948,2.948,0,0,0-.09.729A2.8,2.8,0,0,0,4.925,17.3c.429.628,1.3.269,1.3-.535a.61.61,0,0,1,.448-.628.561.561,0,0,1,.606.608v.583a.869.869,0,0,0,.793.928.869.869,0,0,0,.793-.928V16.76a.61.61,0,0,1,.448-.628.559.559,0,0,1,.606.608v.53a.919.919,0,0,0,.841.981.917.917,0,0,0,.841-.981v-.53a.534.534,0,1,1,1.054,0c-.011.692.779.945,1.065.342a3.23,3.23,0,0,0,.314-1.371,2.948,2.948,0,0,0-.09-.729A7.915,7.915,0,0,0,18.484,8.051Zm-13.8,2.293a2.962,2.962,0,1,1,2.96-2.96A2.962,2.962,0,0,1,4.681,10.344ZM9.8,13.551H8.71a.872.872,0,0,1-.757-1.306l.263-.454.4-.692a.713.713,0,0,1,1.236,0l.4.692.283.488A.849.849,0,0,1,9.8,13.551Zm3.818-2.781A2.685,2.685,0,1,1,16.3,8.084,2.686,2.686,0,0,1,13.618,10.77Z" transform="translate(176.429 81.947) rotate(-25)" fill="#da9918"/>
          <g transform="matrix(1, 0, 0, 1, 0, 0)" filter="url(#Pfad_5)">
            <path id="Pfad_5-6" data-name="Pfad 5" d="M18.484,8.051C18.484,3.6,14.347,0,9.242,0S0,3.6,0,8.051a7.915,7.915,0,0,0,4.541,6.932,2.948,2.948,0,0,0-.09.729A2.8,2.8,0,0,0,4.925,17.3c.429.628,1.3.269,1.3-.535a.61.61,0,0,1,.448-.628.561.561,0,0,1,.606.608v.583a.869.869,0,0,0,.793.928.869.869,0,0,0,.793-.928V16.76a.61.61,0,0,1,.448-.628.559.559,0,0,1,.606.608v.53a.919.919,0,0,0,.841.981.917.917,0,0,0,.841-.981v-.53a.534.534,0,1,1,1.054,0c-.011.692.779.945,1.065.342a3.23,3.23,0,0,0,.314-1.371,2.948,2.948,0,0,0-.09-.729A7.915,7.915,0,0,0,18.484,8.051Zm-13.8,2.293a2.962,2.962,0,1,1,2.96-2.96A2.962,2.962,0,0,1,4.681,10.344ZM9.8,13.551H8.71a.872.872,0,0,1-.757-1.306l.263-.454.4-.692a.713.713,0,0,1,1.236,0l.4.692.283.488A.849.849,0,0,1,9.8,13.551Zm3.818-2.781A2.685,2.685,0,1,1,16.3,8.084,2.686,2.686,0,0,1,13.618,10.77Z" transform="translate(176.43 81.95) rotate(-25)" fill="#fff"/>
          </g>
        </g>
      </g>
    </g>
    <g id="Gruppe_287" data-name="Gruppe 287" transform="translate(310 642)">
      <g id="logo-grau-2" data-name="logo-grau">
        <g id="Gruppe_1-2" data-name="Gruppe 1">
          <g data-type="innerShadowGroup">
            <path id="Pfad_1-7" data-name="Pfad 1" d="M191.2,186.336s.558-16.743.558-60.678c0-6.276-.137-12.415-.976-14.924-.978-2.932-2.512-4.045-15.062-4.606L170,105.851c-.555-.978-.841-6.974-.137-8.785,16.323,0,32.085,0,56.21.555.558,1.533.283,6.837,0,7.95l-9.2.28c-9.074.278-10.879.838-11.857,3.765-.555,1.674-.7,4.883-.7,11.157,0,50.917,1.4,65.284,1.4,65.284C204.309,186.471,196.087,186.749,191.2,186.336Z" transform="translate(-169.444 -97.066)" fill="#da9918"/>
            <g transform="matrix(1, 0, 0, 1, 0, 0)" filter="url(#Pfad_1-2)">
              <path id="Pfad_1-8" data-name="Pfad 1" d="M191.2,186.336s.558-16.743.558-60.678c0-6.276-.137-12.415-.976-14.924-.978-2.932-2.512-4.045-15.062-4.606L170,105.851c-.555-.978-.841-6.974-.137-8.785,16.323,0,32.085,0,56.21.555.558,1.533.283,6.837,0,7.95l-9.2.28c-9.074.278-10.879.838-11.857,3.765-.555,1.674-.7,4.883-.7,11.157,0,50.917,1.4,65.284,1.4,65.284C204.309,186.471,196.087,186.749,191.2,186.336Z" transform="translate(-169.44 -97.07)" fill="#fff"/>
            </g>
          </g>
          <g data-type="innerShadowGroup">
            <path id="Pfad_2-7" data-name="Pfad 2" d="M253.065,166.3c3.622,11.3,4.18,12.976,24.407,12.976a203.086,203.086,0,0,0,23.85-1.4c.7,2.1.558,6.974,0,7.672a227.147,227.147,0,0,1-29.983,2.091c-25.111,0-28.6-2.091-31.528-13.248l-3.625-14.226c-1.113-4.185-2.374-4.463-10.324-4.463h-.692c-11.165,0-13.674.833-14.652,4.74-2.088,8.23-4.042,25.105-4.042,25.105a18.311,18.311,0,0,1-3.067.143c-4.611,0-10.462-.283-12.413-.841,7.95-27.194,15.342-55.795,22.874-87.174,3.067-.283,7.109-.563,10.879-.563a75.24,75.24,0,0,1,9.349.563c4.314,17.854,10.868,43.236,16.875,62.068Zm-25.531-44.913c-1.808-6.974-2.512-9.764-4.18-9.764-1.954,0-2.932,3.908-4.749,10.882l-3.759,14.924a34.879,34.879,0,0,0-1.261,6.417c0,3.207,1.819,3.344,9.483,3.344h.706c6.268,0,9.063-.137,9.063-3.487,0-1.39-.421-2.789-1.113-5.856Z" transform="translate(-130.581 -96.979)" fill="#da9918"/>
            <g transform="matrix(1, 0, 0, 1, 0, 0)" filter="url(#Pfad_2-2)">
              <path id="Pfad_2-8" data-name="Pfad 2" d="M253.065,166.3c3.622,11.3,4.18,12.976,24.407,12.976a203.086,203.086,0,0,0,23.85-1.4c.7,2.1.558,6.974,0,7.672a227.147,227.147,0,0,1-29.983,2.091c-25.111,0-28.6-2.091-31.528-13.248l-3.625-14.226c-1.113-4.185-2.374-4.463-10.324-4.463h-.692c-11.165,0-13.674.833-14.652,4.74-2.088,8.23-4.042,25.105-4.042,25.105a18.311,18.311,0,0,1-3.067.143c-4.611,0-10.462-.283-12.413-.841,7.95-27.194,15.342-55.795,22.874-87.174,3.067-.283,7.109-.563,10.879-.563a75.24,75.24,0,0,1,9.349.563c4.314,17.854,10.868,43.236,16.875,62.068Zm-25.531-44.913c-1.808-6.974-2.512-9.764-4.18-9.764-1.954,0-2.932,3.908-4.749,10.882l-3.759,14.924a34.879,34.879,0,0,0-1.261,6.417c0,3.207,1.819,3.344,9.483,3.344h.706c6.268,0,9.063-.137,9.063-3.487,0-1.39-.421-2.789-1.113-5.856Z" transform="translate(-130.58 -96.98)" fill="#fff"/>
            </g>
          </g>
          <g data-type="innerShadowGroup">
            <path id="Pfad_3-7" data-name="Pfad 3" d="M235.251,166.322s.976-24.62.976-45.549c0-12.55-1.533-13.525-9.2-13.525-4.191,0-8.37.42-8.37.42-.692-.283-1.533-6-.555-10.6,17.854.415,32.357.7,49.235.7.555,1.39.283,6.694,0,7.807l-5.578.143c-10.324.278-12.413,1.113-13.116,3.9a65.636,65.636,0,0,0-.692,11.157c0,36.971.838,44.991.838,44.991A68.4,68.4,0,0,1,235.251,166.322Z" transform="translate(-82.509 -97.066)" fill="#da9918"/>
            <g transform="matrix(1, 0, 0, 1, 0, 0)" filter="url(#Pfad_3-2)">
              <path id="Pfad_3-8" data-name="Pfad 3" d="M235.251,166.322s.976-24.62.976-45.549c0-12.55-1.533-13.525-9.2-13.525-4.191,0-8.37.42-8.37.42-.692-.283-1.533-6-.555-10.6,17.854.415,32.357.7,49.235.7.555,1.39.283,6.694,0,7.807l-5.578.143c-10.324.278-12.413,1.113-13.116,3.9a65.636,65.636,0,0,0-.692,11.157c0,36.971.838,44.991.838,44.991A68.4,68.4,0,0,1,235.251,166.322Z" transform="translate(-82.51 -97.07)" fill="#fff"/>
            </g>
          </g>
          <g data-type="innerShadowGroup">
            <path id="Pfad_4-7" data-name="Pfad 4" d="M270.6,186.257c-23.295,0-27.62-6.282-27.62-29.291,0-50.917-.841-58.867-.841-58.867a122.532,122.532,0,0,1,12.413-.421s.149,36.968.149,48.122c0,17.439,0,23.014,1.4,25.809s6.419,3.487,14.779,3.487c9.074,0,11.72-1.4,13.116-4.185,1.533-3.072,1.533-7.672,1.533-20.926,0-18.832-1.113-52.308-1.113-52.308a73.8,73.8,0,0,1,13.811.283s.555,31.1.555,59C298.783,177.186,294.037,186.257,270.6,186.257Z" transform="translate(-38.353 -96.289)" fill="#da9918"/>
            <g transform="matrix(1, 0, 0, 1, 0, 0)" filter="url(#Pfad_4-2)">
              <path id="Pfad_4-8" data-name="Pfad 4" d="M270.6,186.257c-23.295,0-27.62-6.282-27.62-29.291,0-50.917-.841-58.867-.841-58.867a122.532,122.532,0,0,1,12.413-.421s.149,36.968.149,48.122c0,17.439,0,23.014,1.4,25.809s6.419,3.487,14.779,3.487c9.074,0,11.72-1.4,13.116-4.185,1.533-3.072,1.533-7.672,1.533-20.926,0-18.832-1.113-52.308-1.113-52.308a73.8,73.8,0,0,1,13.811.283s.555,31.1.555,59C298.783,177.186,294.037,186.257,270.6,186.257Z" transform="translate(-38.35 -96.29)" fill="#fff"/>
            </g>
          </g>
        </g>
        <g data-type="innerShadowGroup">
          <path id="Pfad_5-7" data-name="Pfad 5" d="M18.484,8.051C18.484,3.6,14.347,0,9.242,0S0,3.6,0,8.051a7.915,7.915,0,0,0,4.541,6.932,2.948,2.948,0,0,0-.09.729A2.8,2.8,0,0,0,4.925,17.3c.429.628,1.3.269,1.3-.535a.61.61,0,0,1,.448-.628.561.561,0,0,1,.606.608v.583a.869.869,0,0,0,.793.928.869.869,0,0,0,.793-.928V16.76a.61.61,0,0,1,.448-.628.559.559,0,0,1,.606.608v.53a.919.919,0,0,0,.841.981.917.917,0,0,0,.841-.981v-.53a.534.534,0,1,1,1.054,0c-.011.692.779.945,1.065.342a3.23,3.23,0,0,0,.314-1.371,2.948,2.948,0,0,0-.09-.729A7.915,7.915,0,0,0,18.484,8.051Zm-13.8,2.293a2.962,2.962,0,1,1,2.96-2.96A2.962,2.962,0,0,1,4.681,10.344ZM9.8,13.551H8.71a.872.872,0,0,1-.757-1.306l.263-.454.4-.692a.713.713,0,0,1,1.236,0l.4.692.283.488A.849.849,0,0,1,9.8,13.551Zm3.818-2.781A2.685,2.685,0,1,1,16.3,8.084,2.686,2.686,0,0,1,13.618,10.77Z" transform="translate(176.429 81.947) rotate(-25)" fill="#da9918"/>
          <g transform="matrix(1, 0, 0, 1, 0, 0)" filter="url(#Pfad_5-2)">
            <path id="Pfad_5-8" data-name="Pfad 5" d="M18.484,8.051C18.484,3.6,14.347,0,9.242,0S0,3.6,0,8.051a7.915,7.915,0,0,0,4.541,6.932,2.948,2.948,0,0,0-.09.729A2.8,2.8,0,0,0,4.925,17.3c.429.628,1.3.269,1.3-.535a.61.61,0,0,1,.448-.628.561.561,0,0,1,.606.608v.583a.869.869,0,0,0,.793.928.869.869,0,0,0,.793-.928V16.76a.61.61,0,0,1,.448-.628.559.559,0,0,1,.606.608v.53a.919.919,0,0,0,.841.981.917.917,0,0,0,.841-.981v-.53a.534.534,0,1,1,1.054,0c-.011.692.779.945,1.065.342a3.23,3.23,0,0,0,.314-1.371,2.948,2.948,0,0,0-.09-.729A7.915,7.915,0,0,0,18.484,8.051Zm-13.8,2.293a2.962,2.962,0,1,1,2.96-2.96A2.962,2.962,0,0,1,4.681,10.344ZM9.8,13.551H8.71a.872.872,0,0,1-.757-1.306l.263-.454.4-.692a.713.713,0,0,1,1.236,0l.4.692.283.488A.849.849,0,0,1,9.8,13.551Zm3.818-2.781A2.685,2.685,0,1,1,16.3,8.084,2.686,2.686,0,0,1,13.618,10.77Z" transform="translate(176.43 81.95) rotate(-25)" fill="#fff"/>
          </g>
        </g>
      </g>
    </g>
    <g id="Gruppe_288" data-name="Gruppe 288" transform="translate(310 642)">
      <g id="logo-grau-3" data-name="logo-grau">
        <g id="Gruppe_1-3" data-name="Gruppe 1">
          <g data-type="innerShadowGroup">
            <path id="Pfad_1-9" data-name="Pfad 1" d="M191.2,186.336s.558-16.743.558-60.678c0-6.276-.137-12.415-.976-14.924-.978-2.932-2.512-4.045-15.062-4.606L170,105.851c-.555-.978-.841-6.974-.137-8.785,16.323,0,32.085,0,56.21.555.558,1.533.283,6.837,0,7.95l-9.2.28c-9.074.278-10.879.838-11.857,3.765-.555,1.674-.7,4.883-.7,11.157,0,50.917,1.4,65.284,1.4,65.284C204.309,186.471,196.087,186.749,191.2,186.336Z" transform="translate(-169.444 -97.066)" fill="#da9918"/>
            <g transform="matrix(1, 0, 0, 1, 0, 0)" filter="url(#Pfad_1-3)">
              <path id="Pfad_1-10" data-name="Pfad 1" d="M191.2,186.336s.558-16.743.558-60.678c0-6.276-.137-12.415-.976-14.924-.978-2.932-2.512-4.045-15.062-4.606L170,105.851c-.555-.978-.841-6.974-.137-8.785,16.323,0,32.085,0,56.21.555.558,1.533.283,6.837,0,7.95l-9.2.28c-9.074.278-10.879.838-11.857,3.765-.555,1.674-.7,4.883-.7,11.157,0,50.917,1.4,65.284,1.4,65.284C204.309,186.471,196.087,186.749,191.2,186.336Z" transform="translate(-169.44 -97.07)" fill="#fff"/>
            </g>
          </g>
          <g data-type="innerShadowGroup">
            <path id="Pfad_2-9" data-name="Pfad 2" d="M253.065,166.3c3.622,11.3,4.18,12.976,24.407,12.976a203.086,203.086,0,0,0,23.85-1.4c.7,2.1.558,6.974,0,7.672a227.147,227.147,0,0,1-29.983,2.091c-25.111,0-28.6-2.091-31.528-13.248l-3.625-14.226c-1.113-4.185-2.374-4.463-10.324-4.463h-.692c-11.165,0-13.674.833-14.652,4.74-2.088,8.23-4.042,25.105-4.042,25.105a18.311,18.311,0,0,1-3.067.143c-4.611,0-10.462-.283-12.413-.841,7.95-27.194,15.342-55.795,22.874-87.174,3.067-.283,7.109-.563,10.879-.563a75.24,75.24,0,0,1,9.349.563c4.314,17.854,10.868,43.236,16.875,62.068Zm-25.531-44.913c-1.808-6.974-2.512-9.764-4.18-9.764-1.954,0-2.932,3.908-4.749,10.882l-3.759,14.924a34.879,34.879,0,0,0-1.261,6.417c0,3.207,1.819,3.344,9.483,3.344h.706c6.268,0,9.063-.137,9.063-3.487,0-1.39-.421-2.789-1.113-5.856Z" transform="translate(-130.581 -96.979)" fill="#da9918"/>
            <g transform="matrix(1, 0, 0, 1, 0, 0)" filter="url(#Pfad_2-3)">
              <path id="Pfad_2-10" data-name="Pfad 2" d="M253.065,166.3c3.622,11.3,4.18,12.976,24.407,12.976a203.086,203.086,0,0,0,23.85-1.4c.7,2.1.558,6.974,0,7.672a227.147,227.147,0,0,1-29.983,2.091c-25.111,0-28.6-2.091-31.528-13.248l-3.625-14.226c-1.113-4.185-2.374-4.463-10.324-4.463h-.692c-11.165,0-13.674.833-14.652,4.74-2.088,8.23-4.042,25.105-4.042,25.105a18.311,18.311,0,0,1-3.067.143c-4.611,0-10.462-.283-12.413-.841,7.95-27.194,15.342-55.795,22.874-87.174,3.067-.283,7.109-.563,10.879-.563a75.24,75.24,0,0,1,9.349.563c4.314,17.854,10.868,43.236,16.875,62.068Zm-25.531-44.913c-1.808-6.974-2.512-9.764-4.18-9.764-1.954,0-2.932,3.908-4.749,10.882l-3.759,14.924a34.879,34.879,0,0,0-1.261,6.417c0,3.207,1.819,3.344,9.483,3.344h.706c6.268,0,9.063-.137,9.063-3.487,0-1.39-.421-2.789-1.113-5.856Z" transform="translate(-130.58 -96.98)" fill="#fff"/>
            </g>
          </g>
          <g data-type="innerShadowGroup">
            <path id="Pfad_3-9" data-name="Pfad 3" d="M235.251,166.322s.976-24.62.976-45.549c0-12.55-1.533-13.525-9.2-13.525-4.191,0-8.37.42-8.37.42-.692-.283-1.533-6-.555-10.6,17.854.415,32.357.7,49.235.7.555,1.39.283,6.694,0,7.807l-5.578.143c-10.324.278-12.413,1.113-13.116,3.9a65.636,65.636,0,0,0-.692,11.157c0,36.971.838,44.991.838,44.991A68.4,68.4,0,0,1,235.251,166.322Z" transform="translate(-82.509 -97.066)" fill="#da9918"/>
            <g transform="matrix(1, 0, 0, 1, 0, 0)" filter="url(#Pfad_3-3)">
              <path id="Pfad_3-10" data-name="Pfad 3" d="M235.251,166.322s.976-24.62.976-45.549c0-12.55-1.533-13.525-9.2-13.525-4.191,0-8.37.42-8.37.42-.692-.283-1.533-6-.555-10.6,17.854.415,32.357.7,49.235.7.555,1.39.283,6.694,0,7.807l-5.578.143c-10.324.278-12.413,1.113-13.116,3.9a65.636,65.636,0,0,0-.692,11.157c0,36.971.838,44.991.838,44.991A68.4,68.4,0,0,1,235.251,166.322Z" transform="translate(-82.51 -97.07)" fill="#fff"/>
            </g>
          </g>
          <g data-type="innerShadowGroup">
            <path id="Pfad_4-9" data-name="Pfad 4" d="M270.6,186.257c-23.295,0-27.62-6.282-27.62-29.291,0-50.917-.841-58.867-.841-58.867a122.532,122.532,0,0,1,12.413-.421s.149,36.968.149,48.122c0,17.439,0,23.014,1.4,25.809s6.419,3.487,14.779,3.487c9.074,0,11.72-1.4,13.116-4.185,1.533-3.072,1.533-7.672,1.533-20.926,0-18.832-1.113-52.308-1.113-52.308a73.8,73.8,0,0,1,13.811.283s.555,31.1.555,59C298.783,177.186,294.037,186.257,270.6,186.257Z" transform="translate(-38.353 -96.289)" fill="#da9918"/>
            <g transform="matrix(1, 0, 0, 1, 0, 0)" filter="url(#Pfad_4-3)">
              <path id="Pfad_4-10" data-name="Pfad 4" d="M270.6,186.257c-23.295,0-27.62-6.282-27.62-29.291,0-50.917-.841-58.867-.841-58.867a122.532,122.532,0,0,1,12.413-.421s.149,36.968.149,48.122c0,17.439,0,23.014,1.4,25.809s6.419,3.487,14.779,3.487c9.074,0,11.72-1.4,13.116-4.185,1.533-3.072,1.533-7.672,1.533-20.926,0-18.832-1.113-52.308-1.113-52.308a73.8,73.8,0,0,1,13.811.283s.555,31.1.555,59C298.783,177.186,294.037,186.257,270.6,186.257Z" transform="translate(-38.35 -96.29)" fill="#fff"/>
            </g>
          </g>
        </g>
        <g data-type="innerShadowGroup">
          <path id="Pfad_5-9" data-name="Pfad 5" d="M18.484,8.051C18.484,3.6,14.347,0,9.242,0S0,3.6,0,8.051a7.915,7.915,0,0,0,4.541,6.932,2.948,2.948,0,0,0-.09.729A2.8,2.8,0,0,0,4.925,17.3c.429.628,1.3.269,1.3-.535a.61.61,0,0,1,.448-.628.561.561,0,0,1,.606.608v.583a.869.869,0,0,0,.793.928.869.869,0,0,0,.793-.928V16.76a.61.61,0,0,1,.448-.628.559.559,0,0,1,.606.608v.53a.919.919,0,0,0,.841.981.917.917,0,0,0,.841-.981v-.53a.534.534,0,1,1,1.054,0c-.011.692.779.945,1.065.342a3.23,3.23,0,0,0,.314-1.371,2.948,2.948,0,0,0-.09-.729A7.915,7.915,0,0,0,18.484,8.051Zm-13.8,2.293a2.962,2.962,0,1,1,2.96-2.96A2.962,2.962,0,0,1,4.681,10.344ZM9.8,13.551H8.71a.872.872,0,0,1-.757-1.306l.263-.454.4-.692a.713.713,0,0,1,1.236,0l.4.692.283.488A.849.849,0,0,1,9.8,13.551Zm3.818-2.781A2.685,2.685,0,1,1,16.3,8.084,2.686,2.686,0,0,1,13.618,10.77Z" transform="translate(176.429 81.947) rotate(-25)" fill="#da9918"/>
          <g transform="matrix(1, 0, 0, 1, 0, 0)" filter="url(#Pfad_5-3)">
            <path id="Pfad_5-10" data-name="Pfad 5" d="M18.484,8.051C18.484,3.6,14.347,0,9.242,0S0,3.6,0,8.051a7.915,7.915,0,0,0,4.541,6.932,2.948,2.948,0,0,0-.09.729A2.8,2.8,0,0,0,4.925,17.3c.429.628,1.3.269,1.3-.535a.61.61,0,0,1,.448-.628.561.561,0,0,1,.606.608v.583a.869.869,0,0,0,.793.928.869.869,0,0,0,.793-.928V16.76a.61.61,0,0,1,.448-.628.559.559,0,0,1,.606.608v.53a.919.919,0,0,0,.841.981.917.917,0,0,0,.841-.981v-.53a.534.534,0,1,1,1.054,0c-.011.692.779.945,1.065.342a3.23,3.23,0,0,0,.314-1.371,2.948,2.948,0,0,0-.09-.729A7.915,7.915,0,0,0,18.484,8.051Zm-13.8,2.293a2.962,2.962,0,1,1,2.96-2.96A2.962,2.962,0,0,1,4.681,10.344ZM9.8,13.551H8.71a.872.872,0,0,1-.757-1.306l.263-.454.4-.692a.713.713,0,0,1,1.236,0l.4.692.283.488A.849.849,0,0,1,9.8,13.551Zm3.818-2.781A2.685,2.685,0,1,1,16.3,8.084,2.686,2.686,0,0,1,13.618,10.77Z" transform="translate(176.43 81.95) rotate(-25)" fill="#fff"/>
          </g>
        </g>
      </g>
    </g>
    <g id="Gruppe_289" data-name="Gruppe 289" transform="translate(310 642)">
      <g id="logo-grau-4" data-name="logo-grau">
        <g id="Gruppe_1-4" data-name="Gruppe 1">
          <g data-type="innerShadowGroup">
            <path id="Pfad_1-11" data-name="Pfad 1" d="M191.2,186.336s.558-16.743.558-60.678c0-6.276-.137-12.415-.976-14.924-.978-2.932-2.512-4.045-15.062-4.606L170,105.851c-.555-.978-.841-6.974-.137-8.785,16.323,0,32.085,0,56.21.555.558,1.533.283,6.837,0,7.95l-9.2.28c-9.074.278-10.879.838-11.857,3.765-.555,1.674-.7,4.883-.7,11.157,0,50.917,1.4,65.284,1.4,65.284C204.309,186.471,196.087,186.749,191.2,186.336Z" transform="translate(-169.444 -97.066)" fill="#da9918"/>
            <g transform="matrix(1, 0, 0, 1, 0, 0)" filter="url(#Pfad_1-4)">
              <path id="Pfad_1-12" data-name="Pfad 1" d="M191.2,186.336s.558-16.743.558-60.678c0-6.276-.137-12.415-.976-14.924-.978-2.932-2.512-4.045-15.062-4.606L170,105.851c-.555-.978-.841-6.974-.137-8.785,16.323,0,32.085,0,56.21.555.558,1.533.283,6.837,0,7.95l-9.2.28c-9.074.278-10.879.838-11.857,3.765-.555,1.674-.7,4.883-.7,11.157,0,50.917,1.4,65.284,1.4,65.284C204.309,186.471,196.087,186.749,191.2,186.336Z" transform="translate(-169.44 -97.07)" fill="#fff"/>
            </g>
          </g>
          <g data-type="innerShadowGroup">
            <path id="Pfad_2-11" data-name="Pfad 2" d="M253.065,166.3c3.622,11.3,4.18,12.976,24.407,12.976a203.086,203.086,0,0,0,23.85-1.4c.7,2.1.558,6.974,0,7.672a227.147,227.147,0,0,1-29.983,2.091c-25.111,0-28.6-2.091-31.528-13.248l-3.625-14.226c-1.113-4.185-2.374-4.463-10.324-4.463h-.692c-11.165,0-13.674.833-14.652,4.74-2.088,8.23-4.042,25.105-4.042,25.105a18.311,18.311,0,0,1-3.067.143c-4.611,0-10.462-.283-12.413-.841,7.95-27.194,15.342-55.795,22.874-87.174,3.067-.283,7.109-.563,10.879-.563a75.24,75.24,0,0,1,9.349.563c4.314,17.854,10.868,43.236,16.875,62.068Zm-25.531-44.913c-1.808-6.974-2.512-9.764-4.18-9.764-1.954,0-2.932,3.908-4.749,10.882l-3.759,14.924a34.879,34.879,0,0,0-1.261,6.417c0,3.207,1.819,3.344,9.483,3.344h.706c6.268,0,9.063-.137,9.063-3.487,0-1.39-.421-2.789-1.113-5.856Z" transform="translate(-130.581 -96.979)" fill="#da9918"/>
            <g transform="matrix(1, 0, 0, 1, 0, 0)" filter="url(#Pfad_2-4)">
              <path id="Pfad_2-12" data-name="Pfad 2" d="M253.065,166.3c3.622,11.3,4.18,12.976,24.407,12.976a203.086,203.086,0,0,0,23.85-1.4c.7,2.1.558,6.974,0,7.672a227.147,227.147,0,0,1-29.983,2.091c-25.111,0-28.6-2.091-31.528-13.248l-3.625-14.226c-1.113-4.185-2.374-4.463-10.324-4.463h-.692c-11.165,0-13.674.833-14.652,4.74-2.088,8.23-4.042,25.105-4.042,25.105a18.311,18.311,0,0,1-3.067.143c-4.611,0-10.462-.283-12.413-.841,7.95-27.194,15.342-55.795,22.874-87.174,3.067-.283,7.109-.563,10.879-.563a75.24,75.24,0,0,1,9.349.563c4.314,17.854,10.868,43.236,16.875,62.068Zm-25.531-44.913c-1.808-6.974-2.512-9.764-4.18-9.764-1.954,0-2.932,3.908-4.749,10.882l-3.759,14.924a34.879,34.879,0,0,0-1.261,6.417c0,3.207,1.819,3.344,9.483,3.344h.706c6.268,0,9.063-.137,9.063-3.487,0-1.39-.421-2.789-1.113-5.856Z" transform="translate(-130.58 -96.98)" fill="#fff"/>
            </g>
          </g>
          <g data-type="innerShadowGroup">
            <path id="Pfad_3-11" data-name="Pfad 3" d="M235.251,166.322s.976-24.62.976-45.549c0-12.55-1.533-13.525-9.2-13.525-4.191,0-8.37.42-8.37.42-.692-.283-1.533-6-.555-10.6,17.854.415,32.357.7,49.235.7.555,1.39.283,6.694,0,7.807l-5.578.143c-10.324.278-12.413,1.113-13.116,3.9a65.636,65.636,0,0,0-.692,11.157c0,36.971.838,44.991.838,44.991A68.4,68.4,0,0,1,235.251,166.322Z" transform="translate(-82.509 -97.066)" fill="#da9918"/>
            <g transform="matrix(1, 0, 0, 1, 0, 0)" filter="url(#Pfad_3-4)">
              <path id="Pfad_3-12" data-name="Pfad 3" d="M235.251,166.322s.976-24.62.976-45.549c0-12.55-1.533-13.525-9.2-13.525-4.191,0-8.37.42-8.37.42-.692-.283-1.533-6-.555-10.6,17.854.415,32.357.7,49.235.7.555,1.39.283,6.694,0,7.807l-5.578.143c-10.324.278-12.413,1.113-13.116,3.9a65.636,65.636,0,0,0-.692,11.157c0,36.971.838,44.991.838,44.991A68.4,68.4,0,0,1,235.251,166.322Z" transform="translate(-82.51 -97.07)" fill="#fff"/>
            </g>
          </g>
          <g data-type="innerShadowGroup">
            <path id="Pfad_4-11" data-name="Pfad 4" d="M270.6,186.257c-23.295,0-27.62-6.282-27.62-29.291,0-50.917-.841-58.867-.841-58.867a122.532,122.532,0,0,1,12.413-.421s.149,36.968.149,48.122c0,17.439,0,23.014,1.4,25.809s6.419,3.487,14.779,3.487c9.074,0,11.72-1.4,13.116-4.185,1.533-3.072,1.533-7.672,1.533-20.926,0-18.832-1.113-52.308-1.113-52.308a73.8,73.8,0,0,1,13.811.283s.555,31.1.555,59C298.783,177.186,294.037,186.257,270.6,186.257Z" transform="translate(-38.353 -96.289)" fill="#da9918"/>
            <g transform="matrix(1, 0, 0, 1, 0, 0)" filter="url(#Pfad_4-4)">
              <path id="Pfad_4-12" data-name="Pfad 4" d="M270.6,186.257c-23.295,0-27.62-6.282-27.62-29.291,0-50.917-.841-58.867-.841-58.867a122.532,122.532,0,0,1,12.413-.421s.149,36.968.149,48.122c0,17.439,0,23.014,1.4,25.809s6.419,3.487,14.779,3.487c9.074,0,11.72-1.4,13.116-4.185,1.533-3.072,1.533-7.672,1.533-20.926,0-18.832-1.113-52.308-1.113-52.308a73.8,73.8,0,0,1,13.811.283s.555,31.1.555,59C298.783,177.186,294.037,186.257,270.6,186.257Z" transform="translate(-38.35 -96.29)" fill="#fff"/>
            </g>
          </g>
        </g>
        <g data-type="innerShadowGroup">
          <path id="Pfad_5-11" data-name="Pfad 5" d="M18.484,8.051C18.484,3.6,14.347,0,9.242,0S0,3.6,0,8.051a7.915,7.915,0,0,0,4.541,6.932,2.948,2.948,0,0,0-.09.729A2.8,2.8,0,0,0,4.925,17.3c.429.628,1.3.269,1.3-.535a.61.61,0,0,1,.448-.628.561.561,0,0,1,.606.608v.583a.869.869,0,0,0,.793.928.869.869,0,0,0,.793-.928V16.76a.61.61,0,0,1,.448-.628.559.559,0,0,1,.606.608v.53a.919.919,0,0,0,.841.981.917.917,0,0,0,.841-.981v-.53a.534.534,0,1,1,1.054,0c-.011.692.779.945,1.065.342a3.23,3.23,0,0,0,.314-1.371,2.948,2.948,0,0,0-.09-.729A7.915,7.915,0,0,0,18.484,8.051Zm-13.8,2.293a2.962,2.962,0,1,1,2.96-2.96A2.962,2.962,0,0,1,4.681,10.344ZM9.8,13.551H8.71a.872.872,0,0,1-.757-1.306l.263-.454.4-.692a.713.713,0,0,1,1.236,0l.4.692.283.488A.849.849,0,0,1,9.8,13.551Zm3.818-2.781A2.685,2.685,0,1,1,16.3,8.084,2.686,2.686,0,0,1,13.618,10.77Z" transform="translate(176.429 81.947) rotate(-25)" fill="#da9918"/>
          <g transform="matrix(1, 0, 0, 1, 0, 0)" filter="url(#Pfad_5-4)">
            <path id="Pfad_5-12" data-name="Pfad 5" d="M18.484,8.051C18.484,3.6,14.347,0,9.242,0S0,3.6,0,8.051a7.915,7.915,0,0,0,4.541,6.932,2.948,2.948,0,0,0-.09.729A2.8,2.8,0,0,0,4.925,17.3c.429.628,1.3.269,1.3-.535a.61.61,0,0,1,.448-.628.561.561,0,0,1,.606.608v.583a.869.869,0,0,0,.793.928.869.869,0,0,0,.793-.928V16.76a.61.61,0,0,1,.448-.628.559.559,0,0,1,.606.608v.53a.919.919,0,0,0,.841.981.917.917,0,0,0,.841-.981v-.53a.534.534,0,1,1,1.054,0c-.011.692.779.945,1.065.342a3.23,3.23,0,0,0,.314-1.371,2.948,2.948,0,0,0-.09-.729A7.915,7.915,0,0,0,18.484,8.051Zm-13.8,2.293a2.962,2.962,0,1,1,2.96-2.96A2.962,2.962,0,0,1,4.681,10.344ZM9.8,13.551H8.71a.872.872,0,0,1-.757-1.306l.263-.454.4-.692a.713.713,0,0,1,1.236,0l.4.692.283.488A.849.849,0,0,1,9.8,13.551Zm3.818-2.781A2.685,2.685,0,1,1,16.3,8.084,2.686,2.686,0,0,1,13.618,10.77Z" transform="translate(176.43 81.95) rotate(-25)" fill="#fff"/>
          </g>
        </g>
      </g>
    </g>
  </g>
</svg>
